<svg viewBox="0 0 16 16" xmlns="http://www.w3.org/2000/svg">
<rect x="7" y="3" width="1" height="1" fill="#DBDBDB" shape-rendering="crispEdges" />
<rect x="8" y="3" width="1" height="1" fill="#DBDBDB" shape-rendering="crispEdges" />
<rect x="9" y="3" width="1" height="1" fill="#DADADB" shape-rendering="crispEdges" />
<rect x="5" y="4" width="1" height="1" fill="#C24536" shape-rendering="crispEdges" />
<rect x="6" y="4" width="1" height="1" fill="#C24536" shape-rendering="crispEdges" />
<rect x="7" y="4" width="1" height="1" fill="#C24536" shape-rendering="crispEdges" />
<rect x="8" y="4" width="1" height="1" fill="#C24536" shape-rendering="crispEdges" />
<rect x="9" y="4" width="1" height="1" fill="#C24536" shape-rendering="crispEdges" />
<rect x="5" y="5" width="1" height="1" fill="#D68F38" shape-rendering="crispEdges" />
<rect x="6" y="5" width="1" height="1" fill="#ACACAC" shape-rendering="crispEdges" />
<rect x="7" y="5" width="1" height="1" fill="#ACACAC" shape-rendering="crispEdges" />
<rect x="8" y="5" width="1" height="1" fill="#ACACAC" shape-rendering="crispEdges" />
<rect x="9" y="5" width="1" height="1" fill="#ADABAB" shape-rendering="crispEdges" />
<rect x="6" y="6" width="1" height="1" fill="#4A4A4A" shape-rendering="crispEdges" />
<rect x="7" y="6" width="1" height="1" fill="#49C448" shape-rendering="crispEdges" />
<rect x="8" y="6" width="1" height="1" fill="#4A4A4A" shape-rendering="crispEdges" />
<rect x="9" y="6" width="1" height="1" fill="#D84337" shape-rendering="crispEdges" />
<rect x="10" y="6" width="1" height="1" fill="#4A4A4A" shape-rendering="crispEdges" />
<rect x="5" y="7" width="1" height="1" fill="#D68F38" shape-rendering="crispEdges" />
<rect x="6" y="7" width="1" height="1" fill="#ACACAC" shape-rendering="crispEdges" />
<rect x="7" y="7" width="1" height="1" fill="#ACACAC" shape-rendering="crispEdges" />
<rect x="8" y="7" width="1" height="1" fill="#ACACAC" shape-rendering="crispEdges" />
<rect x="9" y="7" width="1" height="1" fill="#ACACAC" shape-rendering="crispEdges" />
<rect x="10" y="7" width="1" height="1" fill="#ADABAA" shape-rendering="crispEdges" />
<rect x="1" y="8" width="1" height="1" fill="#DEDEDD" shape-rendering="crispEdges" />
<rect x="6" y="8" width="1" height="1" fill="#ACACAC" shape-rendering="crispEdges" />
<rect x="7" y="8" width="1" height="1" fill="#B77ACF" shape-rendering="crispEdges" />
<rect x="8" y="8" width="1" height="1" fill="#B77ACF" shape-rendering="crispEdges" />
<rect x="1" y="9" width="1" height="1" fill="#DEDEDD" shape-rendering="crispEdges" />
<rect x="2" y="9" width="1" height="1" fill="#DEDEDE" shape-rendering="crispEdges" />
<rect x="4" y="9" width="1" height="1" fill="#ACACAC" shape-rendering="crispEdges" />
<rect x="5" y="9" width="1" height="1" fill="#D68F38" shape-rendering="crispEdges" />
<rect x="6" y="9" width="1" height="1" fill="#ACACAC" shape-rendering="crispEdges" />
<rect x="7" y="9" width="1" height="1" fill="#ADADAD" shape-rendering="crispEdges" />
<rect x="8" y="9" width="1" height="1" fill="#B77ACF" shape-rendering="crispEdges" />
<rect x="9" y="9" width="1" height="1" fill="#ADABAA" shape-rendering="crispEdges" />
<rect x="2" y="10" width="1" height="1" fill="#DEDEDD" shape-rendering="crispEdges" />
<rect x="3" y="10" width="1" height="1" fill="#DEDEDE" shape-rendering="crispEdges" />
<rect x="5" y="10" width="1" height="1" fill="#ACACAC" shape-rendering="crispEdges" />
<rect x="6" y="10" width="1" height="1" fill="#ACACAC" shape-rendering="crispEdges" />
<rect x="7" y="10" width="1" height="1" fill="#B77ACF" shape-rendering="crispEdges" />
<rect x="8" y="10" width="1" height="1" fill="#B77ACF" shape-rendering="crispEdges" />
<rect x="1" y="11" width="1" height="1" fill="#DEDEDD" shape-rendering="crispEdges" />
<rect x="3" y="11" width="1" height="1" fill="#DEDEDD" shape-rendering="crispEdges" />
<rect x="4" y="11" width="1" height="1" fill="#DEDEDE" shape-rendering="crispEdges" />
<rect x="6" y="11" width="1" height="1" fill="#ADABAA" shape-rendering="crispEdges" />
<rect x="8" y="11" width="1" height="1" fill="#ADABAA" shape-rendering="crispEdges" />
<rect x="2" y="12" width="1" height="1" fill="#DEDEDD" shape-rendering="crispEdges" />
<rect x="4" y="12" width="1" height="1" fill="#DEDEDD" shape-rendering="crispEdges" />
<rect x="5" y="12" width="1" height="1" fill="#DEDEDE" shape-rendering="crispEdges" />
<rect x="6" y="12" width="1" height="1" fill="#1A1A19" shape-rendering="crispEdges" />
<rect x="7" y="12" width="1" height="1" fill="#DEDEDE" shape-rendering="crispEdges" />
<rect x="8" y="12" width="1" height="1" fill="#1A1A19" shape-rendering="crispEdges" />
</svg>