<svg viewBox="0 0 16 16" xmlns="http://www.w3.org/2000/svg">
<rect x="6" y="4" width="1" height="1" fill="#B3B3B3" shape-rendering="crispEdges" />
<rect x="8" y="4" width="1" height="1" fill="#B3B3B3" shape-rendering="crispEdges" />
<rect x="5" y="5" width="1" height="1" fill="#B3B3B3" shape-rendering="crispEdges" />
<rect x="6" y="5" width="1" height="1" fill="#8BA4D5" shape-rendering="crispEdges" />
<rect x="7" y="5" width="1" height="1" fill="#8BA4D5" shape-rendering="crispEdges" />
<rect x="8" y="5" width="1" height="1" fill="#8BA4D5" shape-rendering="crispEdges" />
<rect x="9" y="5" width="1" height="1" fill="#8DA3D2" shape-rendering="crispEdges" />
<rect x="6" y="6" width="1" height="1" fill="#8BA4D5" shape-rendering="crispEdges" />
<rect x="7" y="6" width="1" height="1" fill="#D48049" shape-rendering="crispEdges" />
<rect x="8" y="6" width="1" height="1" fill="#8BA4D5" shape-rendering="crispEdges" />
<rect x="9" y="6" width="1" height="1" fill="#D48049" shape-rendering="crispEdges" />
<rect x="10" y="6" width="1" height="1" fill="#8DA3D2" shape-rendering="crispEdges" />
<rect x="5" y="7" width="1" height="1" fill="#B3B3B3" shape-rendering="crispEdges" />
<rect x="6" y="7" width="1" height="1" fill="#8BA4D5" shape-rendering="crispEdges" />
<rect x="7" y="7" width="1" height="1" fill="#8BA4D5" shape-rendering="crispEdges" />
<rect x="8" y="7" width="1" height="1" fill="#8BA4D5" shape-rendering="crispEdges" />
<rect x="9" y="7" width="1" height="1" fill="#8BA4D5" shape-rendering="crispEdges" />
<rect x="10" y="7" width="1" height="1" fill="#8DA3D2" shape-rendering="crispEdges" />
<rect x="6" y="8" width="1" height="1" fill="#8BA4D5" shape-rendering="crispEdges" />
<rect x="7" y="8" width="1" height="1" fill="#8AD1DD" shape-rendering="crispEdges" />
<rect x="8" y="8" width="1" height="1" fill="#8AD1DD" shape-rendering="crispEdges" />
<rect x="0" y="9" width="1" height="1" fill="#DDDDDD" shape-rendering="crispEdges" />
<rect x="4" y="9" width="1" height="1" fill="#8CA5D5" shape-rendering="crispEdges" />
<rect x="5" y="9" width="1" height="1" fill="#B3B3B3" shape-rendering="crispEdges" />
<rect x="6" y="9" width="1" height="1" fill="#8BA4D5" shape-rendering="crispEdges" />
<rect x="7" y="9" width="1" height="1" fill="#8BA4D5" shape-rendering="crispEdges" />
<rect x="8" y="9" width="1" height="1" fill="#8AD1DD" shape-rendering="crispEdges" />
<rect x="9" y="9" width="1" height="1" fill="#8DA3D2" shape-rendering="crispEdges" />
<rect x="0" y="10" width="1" height="1" fill="#DDDDDD" shape-rendering="crispEdges" />
<rect x="1" y="10" width="1" height="1" fill="#DDDDDD" shape-rendering="crispEdges" />
<rect x="5" y="10" width="1" height="1" fill="#8CA5D5" shape-rendering="crispEdges" />
<rect x="6" y="10" width="1" height="1" fill="#8BA4D5" shape-rendering="crispEdges" />
<rect x="7" y="10" width="1" height="1" fill="#8AD1DD" shape-rendering="crispEdges" />
<rect x="8" y="10" width="1" height="1" fill="#8AD1DD" shape-rendering="crispEdges" />
<rect x="0" y="11" width="1" height="1" fill="#DDDDDD" shape-rendering="crispEdges" />
<rect x="2" y="11" width="1" height="1" fill="#DDDDDD" shape-rendering="crispEdges" />
<rect x="6" y="11" width="1" height="1" fill="#8DA3D2" shape-rendering="crispEdges" />
<rect x="8" y="11" width="1" height="1" fill="#8DA3D2" shape-rendering="crispEdges" />
<rect x="0" y="12" width="1" height="1" fill="#DDDDDD" shape-rendering="crispEdges" />
<rect x="1" y="12" width="1" height="1" fill="#DDDDDD" shape-rendering="crispEdges" />
<rect x="2" y="12" width="1" height="1" fill="#DDDDDD" shape-rendering="crispEdges" />
<rect x="3" y="12" width="1" height="1" fill="#DDDDDD" shape-rendering="crispEdges" />
<rect x="1" y="13" width="1" height="1" fill="#DDDDDD" shape-rendering="crispEdges" />
<rect x="3" y="13" width="1" height="1" fill="#DDDDDD" shape-rendering="crispEdges" />
<rect x="5" y="13" width="1" height="1" fill="#C566BF" shape-rendering="crispEdges" />
<rect x="6" y="13" width="1" height="1" fill="#C566BF" shape-rendering="crispEdges" />
<rect x="7" y="13" width="1" height="1" fill="#C566BF" shape-rendering="crispEdges" />
<rect x="8" y="13" width="1" height="1" fill="#C567C0" shape-rendering="crispEdges" />
</svg>