<svg viewBox="0 0 16 16" xmlns="http://www.w3.org/2000/svg">
<rect x="6" y="3" width="1" height="1" fill="#9457CB" shape-rendering="crispEdges" />
<rect x="7" y="3" width="1" height="1" fill="#9457CB" shape-rendering="crispEdges" />
<rect x="8" y="3" width="1" height="1" fill="#9457CB" shape-rendering="crispEdges" />
<rect x="6" y="4" width="1" height="1" fill="#9256CA" shape-rendering="crispEdges" />
<rect x="7" y="4" width="1" height="1" fill="#9557CA" shape-rendering="crispEdges" />
<rect x="8" y="4" width="1" height="1" fill="#9557CA" shape-rendering="crispEdges" />
<rect x="9" y="4" width="1" height="1" fill="#9557CA" shape-rendering="crispEdges" />
<rect x="10" y="4" width="1" height="1" fill="#9457CA" shape-rendering="crispEdges" />
<rect x="5" y="5" width="1" height="1" fill="#414040" shape-rendering="crispEdges" />
<rect x="6" y="5" width="1" height="1" fill="#F2ADBE" shape-rendering="crispEdges" />
<rect x="7" y="5" width="1" height="1" fill="#F2ADBE" shape-rendering="crispEdges" />
<rect x="8" y="5" width="1" height="1" fill="#F2ADBE" shape-rendering="crispEdges" />
<rect x="9" y="5" width="1" height="1" fill="#F0ADBE" shape-rendering="crispEdges" />
<rect x="6" y="6" width="1" height="1" fill="#F2ADBE" shape-rendering="crispEdges" />
<rect x="7" y="6" width="1" height="1" fill="#F4F4F4" shape-rendering="crispEdges" />
<rect x="8" y="6" width="1" height="1" fill="#F2ADBE" shape-rendering="crispEdges" />
<rect x="9" y="6" width="1" height="1" fill="#F4F4F4" shape-rendering="crispEdges" />
<rect x="10" y="6" width="1" height="1" fill="#F1ADBD" shape-rendering="crispEdges" />
<rect x="5" y="7" width="1" height="1" fill="#414040" shape-rendering="crispEdges" />
<rect x="6" y="7" width="1" height="1" fill="#F2ADBE" shape-rendering="crispEdges" />
<rect x="7" y="7" width="1" height="1" fill="#F2ADBE" shape-rendering="crispEdges" />
<rect x="8" y="7" width="1" height="1" fill="#F2ADBE" shape-rendering="crispEdges" />
<rect x="9" y="7" width="1" height="1" fill="#F2ADBE" shape-rendering="crispEdges" />
<rect x="10" y="7" width="1" height="1" fill="#F1ADBD" shape-rendering="crispEdges" />
<rect x="6" y="8" width="1" height="1" fill="#F2ADBE" shape-rendering="crispEdges" />
<rect x="7" y="8" width="1" height="1" fill="#D67756" shape-rendering="crispEdges" />
<rect x="8" y="8" width="1" height="1" fill="#D67756" shape-rendering="crispEdges" />
<rect x="4" y="9" width="1" height="1" fill="#F0ACBC" shape-rendering="crispEdges" />
<rect x="5" y="9" width="1" height="1" fill="#414040" shape-rendering="crispEdges" />
<rect x="6" y="9" width="1" height="1" fill="#F2ADBE" shape-rendering="crispEdges" />
<rect x="7" y="9" width="1" height="1" fill="#F2AEBF" shape-rendering="crispEdges" />
<rect x="8" y="9" width="1" height="1" fill="#D67756" shape-rendering="crispEdges" />
<rect x="9" y="9" width="1" height="1" fill="#F1ADBD" shape-rendering="crispEdges" />
<rect x="5" y="10" width="1" height="1" fill="#F0ACBC" shape-rendering="crispEdges" />
<rect x="6" y="10" width="1" height="1" fill="#F2ADBE" shape-rendering="crispEdges" />
<rect x="7" y="10" width="1" height="1" fill="#D67756" shape-rendering="crispEdges" />
<rect x="8" y="10" width="1" height="1" fill="#D67756" shape-rendering="crispEdges" />
<rect x="6" y="11" width="1" height="1" fill="#F1ADBD" shape-rendering="crispEdges" />
<rect x="8" y="11" width="1" height="1" fill="#F1ADBD" shape-rendering="crispEdges" />
</svg>