<svg viewBox="0 0 16 16" xmlns="http://www.w3.org/2000/svg">
<rect x="6" y="4" width="1" height="1" fill="#A3D876" shape-rendering="crispEdges" />
<rect x="8" y="4" width="1" height="1" fill="#A67AD2" shape-rendering="crispEdges" />
<rect x="5" y="5" width="1" height="1" fill="#D4995E" shape-rendering="crispEdges" />
<rect x="6" y="5" width="1" height="1" fill="#BF6157" shape-rendering="crispEdges" />
<rect x="7" y="5" width="1" height="1" fill="#BF6157" shape-rendering="crispEdges" />
<rect x="8" y="5" width="1" height="1" fill="#BF6157" shape-rendering="crispEdges" />
<rect x="9" y="5" width="1" height="1" fill="#BF6257" shape-rendering="crispEdges" />
<rect x="6" y="6" width="1" height="1" fill="#CB8844" shape-rendering="crispEdges" />
<rect x="7" y="6" width="1" height="1" fill="#D48049" shape-rendering="crispEdges" />
<rect x="8" y="6" width="1" height="1" fill="#CB8844" shape-rendering="crispEdges" />
<rect x="9" y="6" width="1" height="1" fill="#D48049" shape-rendering="crispEdges" />
<rect x="10" y="6" width="1" height="1" fill="#CB8844" shape-rendering="crispEdges" />
<rect x="5" y="7" width="1" height="1" fill="#76A7D8" shape-rendering="crispEdges" />
<rect x="6" y="7" width="1" height="1" fill="#CCB144" shape-rendering="crispEdges" />
<rect x="7" y="7" width="1" height="1" fill="#CCB144" shape-rendering="crispEdges" />
<rect x="8" y="7" width="1" height="1" fill="#CCB144" shape-rendering="crispEdges" />
<rect x="9" y="7" width="1" height="1" fill="#CCB144" shape-rendering="crispEdges" />
<rect x="10" y="7" width="1" height="1" fill="#CBB144" shape-rendering="crispEdges" />
<rect x="6" y="8" width="1" height="1" fill="#6BC156" shape-rendering="crispEdges" />
<rect x="7" y="8" width="1" height="1" fill="#BF5F6A" shape-rendering="crispEdges" />
<rect x="8" y="8" width="1" height="1" fill="#BF5F6A" shape-rendering="crispEdges" />
<rect x="4" y="9" width="1" height="1" fill="#6492C5" shape-rendering="crispEdges" />
<rect x="5" y="9" width="1" height="1" fill="#DC5964" shape-rendering="crispEdges" />
<rect x="6" y="9" width="1" height="1" fill="#6391C5" shape-rendering="crispEdges" />
<rect x="7" y="9" width="1" height="1" fill="#6391C5" shape-rendering="crispEdges" />
<rect x="8" y="9" width="1" height="1" fill="#BF5E6B" shape-rendering="crispEdges" />
<rect x="9" y="9" width="1" height="1" fill="#6391C4" shape-rendering="crispEdges" />
<rect x="5" y="10" width="1" height="1" fill="#7A57C6" shape-rendering="crispEdges" />
<rect x="6" y="10" width="1" height="1" fill="#7956C6" shape-rendering="crispEdges" />
<rect x="7" y="10" width="1" height="1" fill="#BF5E6B" shape-rendering="crispEdges" />
<rect x="8" y="10" width="1" height="1" fill="#BF5E6B" shape-rendering="crispEdges" />
<rect x="6" y="11" width="1" height="1" fill="#BE67C4" shape-rendering="crispEdges" />
<rect x="8" y="11" width="1" height="1" fill="#BE67C4" shape-rendering="crispEdges" />
</svg>