<svg viewBox="0 0 16 16" xmlns="http://www.w3.org/2000/svg">
<rect x="5" y="3" width="1" height="1" fill="#F0A92A" shape-rendering="crispEdges" />
<rect x="7" y="3" width="1" height="1" fill="#F1AA2B" shape-rendering="crispEdges" />
<rect x="9" y="3" width="1" height="1" fill="#F0A92A" shape-rendering="crispEdges" />
<rect x="5" y="4" width="1" height="1" fill="#F1AA2B" shape-rendering="crispEdges" />
<rect x="6" y="4" width="1" height="1" fill="#F0A82B" shape-rendering="crispEdges" />
<rect x="7" y="4" width="1" height="1" fill="#F0A82A" shape-rendering="crispEdges" />
<rect x="8" y="4" width="1" height="1" fill="#F1A92B" shape-rendering="crispEdges" />
<rect x="9" y="4" width="1" height="1" fill="#F0A92A" shape-rendering="crispEdges" />
<rect x="5" y="5" width="1" height="1" fill="#B3B3B3" shape-rendering="crispEdges" />
<rect x="6" y="5" width="1" height="1" fill="#E1D8D1" shape-rendering="crispEdges" />
<rect x="7" y="5" width="1" height="1" fill="#E1D8D1" shape-rendering="crispEdges" />
<rect x="8" y="5" width="1" height="1" fill="#E1D8D1" shape-rendering="crispEdges" />
<rect x="9" y="5" width="1" height="1" fill="#E1D8D1" shape-rendering="crispEdges" />
<rect x="6" y="6" width="1" height="1" fill="#DFC2AE" shape-rendering="crispEdges" />
<rect x="7" y="6" width="1" height="1" fill="#D48049" shape-rendering="crispEdges" />
<rect x="8" y="6" width="1" height="1" fill="#DFC2AE" shape-rendering="crispEdges" />
<rect x="9" y="6" width="1" height="1" fill="#D48049" shape-rendering="crispEdges" />
<rect x="10" y="6" width="1" height="1" fill="#DFC2AE" shape-rendering="crispEdges" />
<rect x="5" y="7" width="1" height="1" fill="#B3B3B3" shape-rendering="crispEdges" />
<rect x="6" y="7" width="1" height="1" fill="#E1B08E" shape-rendering="crispEdges" />
<rect x="7" y="7" width="1" height="1" fill="#E1B08E" shape-rendering="crispEdges" />
<rect x="8" y="7" width="1" height="1" fill="#E1B08E" shape-rendering="crispEdges" />
<rect x="9" y="7" width="1" height="1" fill="#E1B08E" shape-rendering="crispEdges" />
<rect x="10" y="7" width="1" height="1" fill="#E1B08E" shape-rendering="crispEdges" />
<rect x="6" y="8" width="1" height="1" fill="#E5A57A" shape-rendering="crispEdges" />
<rect x="7" y="8" width="1" height="1" fill="#D9D574" shape-rendering="crispEdges" />
<rect x="8" y="8" width="1" height="1" fill="#D9D574" shape-rendering="crispEdges" />
<rect x="4" y="9" width="1" height="1" fill="#E4955F" shape-rendering="crispEdges" />
<rect x="5" y="9" width="1" height="1" fill="#B3B3B3" shape-rendering="crispEdges" />
<rect x="6" y="9" width="1" height="1" fill="#E5955E" shape-rendering="crispEdges" />
<rect x="7" y="9" width="1" height="1" fill="#E5955E" shape-rendering="crispEdges" />
<rect x="8" y="9" width="1" height="1" fill="#D9D474" shape-rendering="crispEdges" />
<rect x="9" y="9" width="1" height="1" fill="#E4955F" shape-rendering="crispEdges" />
<rect x="5" y="10" width="1" height="1" fill="#E48442" shape-rendering="crispEdges" />
<rect x="6" y="10" width="1" height="1" fill="#E48442" shape-rendering="crispEdges" />
<rect x="7" y="10" width="1" height="1" fill="#D9D474" shape-rendering="crispEdges" />
<rect x="8" y="10" width="1" height="1" fill="#D9D474" shape-rendering="crispEdges" />
<rect x="4" y="11" width="1" height="1" fill="#7C4D3B" shape-rendering="crispEdges" />
<rect x="6" y="11" width="1" height="1" fill="#E37931" shape-rendering="crispEdges" />
<rect x="8" y="11" width="1" height="1" fill="#E37931" shape-rendering="crispEdges" />
<rect x="10" y="11" width="1" height="1" fill="#7C4D3B" shape-rendering="crispEdges" />
<rect x="5" y="12" width="1" height="1" fill="#7B4C3A" shape-rendering="crispEdges" />
<rect x="6" y="12" width="1" height="1" fill="#7A4A38" shape-rendering="crispEdges" />
<rect x="7" y="12" width="1" height="1" fill="#7A4A38" shape-rendering="crispEdges" />
<rect x="8" y="12" width="1" height="1" fill="#7B4C3A" shape-rendering="crispEdges" />
<rect x="9" y="12" width="1" height="1" fill="#7B4C3A" shape-rendering="crispEdges" />
<rect x="5" y="13" width="1" height="1" fill="#FEFEFE" shape-rendering="crispEdges" />
<rect x="6" y="13" width="1" height="1" fill="#BAB1AD" shape-rendering="crispEdges" />
<rect x="8" y="13" width="1" height="1" fill="#BAB1AD" shape-rendering="crispEdges" />
<rect x="9" y="13" width="1" height="1" fill="#FEFEFE" shape-rendering="crispEdges" />
</svg>