<svg viewBox="0 0 16 16" xmlns="http://www.w3.org/2000/svg">
<rect x="5" y="3" width="1" height="1" fill="#F0A92A" shape-rendering="crispEdges" />
<rect x="7" y="3" width="1" height="1" fill="#F1AA2B" shape-rendering="crispEdges" />
<rect x="9" y="3" width="1" height="1" fill="#F0A92A" shape-rendering="crispEdges" />
<rect x="5" y="4" width="1" height="1" fill="#F1AA2B" shape-rendering="crispEdges" />
<rect x="6" y="4" width="1" height="1" fill="#F0A82B" shape-rendering="crispEdges" />
<rect x="7" y="4" width="1" height="1" fill="#F0A82A" shape-rendering="crispEdges" />
<rect x="8" y="4" width="1" height="1" fill="#F1A92A" shape-rendering="crispEdges" />
<rect x="9" y="4" width="1" height="1" fill="#F0A92A" shape-rendering="crispEdges" />
<rect x="13" y="4" width="1" height="1" fill="#CF5D4F" shape-rendering="crispEdges" />
<rect x="14" y="4" width="1" height="1" fill="#9B6ACA" shape-rendering="crispEdges" />
<rect x="5" y="5" width="1" height="1" fill="#C16E48" shape-rendering="crispEdges" />
<rect x="6" y="5" width="1" height="1" fill="#EBEBEB" shape-rendering="crispEdges" />
<rect x="7" y="5" width="1" height="1" fill="#EAEBEB" shape-rendering="crispEdges" />
<rect x="8" y="5" width="1" height="1" fill="#EAEBEB" shape-rendering="crispEdges" />
<rect x="9" y="5" width="1" height="1" fill="#6ECAD4" shape-rendering="crispEdges" />
<rect x="12" y="5" width="1" height="1" fill="#CF5D4F" shape-rendering="crispEdges" />
<rect x="13" y="5" width="1" height="1" fill="#9B6ACA" shape-rendering="crispEdges" />
<rect x="14" y="5" width="1" height="1" fill="#44C27F" shape-rendering="crispEdges" />
<rect x="6" y="6" width="1" height="1" fill="#EBEBEB" shape-rendering="crispEdges" />
<rect x="7" y="6" width="1" height="1" fill="#EBEBEB" shape-rendering="crispEdges" />
<rect x="8" y="6" width="1" height="1" fill="#6EC9D4" shape-rendering="crispEdges" />
<rect x="9" y="6" width="1" height="1" fill="#282828" shape-rendering="crispEdges" />
<rect x="10" y="6" width="1" height="1" fill="#6ECAD4" shape-rendering="crispEdges" />
<rect x="12" y="6" width="1" height="1" fill="#9B6ACA" shape-rendering="crispEdges" />
<rect x="13" y="6" width="1" height="1" fill="#44C27F" shape-rendering="crispEdges" />
<rect x="5" y="7" width="1" height="1" fill="#C16E48" shape-rendering="crispEdges" />
<rect x="6" y="7" width="1" height="1" fill="#EAEBEB" shape-rendering="crispEdges" />
<rect x="7" y="7" width="1" height="1" fill="#6EC9D4" shape-rendering="crispEdges" />
<rect x="8" y="7" width="1" height="1" fill="#6EC9D4" shape-rendering="crispEdges" />
<rect x="9" y="7" width="1" height="1" fill="#6EC9D4" shape-rendering="crispEdges" />
<rect x="10" y="7" width="1" height="1" fill="#6ECAD4" shape-rendering="crispEdges" />
<rect x="11" y="7" width="1" height="1" fill="#B48366" shape-rendering="crispEdges" />
<rect x="6" y="8" width="1" height="1" fill="#6ECAD4" shape-rendering="crispEdges" />
<rect x="7" y="8" width="1" height="1" fill="#BF5F6B" shape-rendering="crispEdges" />
<rect x="8" y="8" width="1" height="1" fill="#BF5F6B" shape-rendering="crispEdges" />
<rect x="10" y="8" width="1" height="1" fill="#B48366" shape-rendering="crispEdges" />
<rect x="4" y="9" width="1" height="1" fill="#6FCAD4" shape-rendering="crispEdges" />
<rect x="5" y="9" width="1" height="1" fill="#C16E48" shape-rendering="crispEdges" />
<rect x="6" y="9" width="1" height="1" fill="#6EC9D4" shape-rendering="crispEdges" />
<rect x="7" y="9" width="1" height="1" fill="#6EC9D4" shape-rendering="crispEdges" />
<rect x="8" y="9" width="1" height="1" fill="#BF5F6B" shape-rendering="crispEdges" />
<rect x="9" y="9" width="1" height="1" fill="#6ECAD4" shape-rendering="crispEdges" />
<rect x="5" y="10" width="1" height="1" fill="#6EC9D4" shape-rendering="crispEdges" />
<rect x="6" y="10" width="1" height="1" fill="#6EC9D4" shape-rendering="crispEdges" />
<rect x="7" y="10" width="1" height="1" fill="#BF5F6B" shape-rendering="crispEdges" />
<rect x="8" y="10" width="1" height="1" fill="#BF5F6B" shape-rendering="crispEdges" />
<rect x="6" y="11" width="1" height="1" fill="#6ECAD4" shape-rendering="crispEdges" />
<rect x="8" y="11" width="1" height="1" fill="#6ECAD4" shape-rendering="crispEdges" />
</svg>