<svg viewBox="0 0 16 16" xmlns="http://www.w3.org/2000/svg">
<rect x="0" y="0" width="1" height="1" fill="#FEFEFF" shape-rendering="crispEdges" />
<rect x="15" y="0" width="1" height="1" fill="#FEFEFF" shape-rendering="crispEdges" />
<rect x="7" y="2" width="1" height="1" fill="#FEFEFF" shape-rendering="crispEdges" />
<rect x="8" y="2" width="1" height="1" fill="#FEFEFF" shape-rendering="crispEdges" />
<rect x="9" y="2" width="1" height="1" fill="#FEFEFF" shape-rendering="crispEdges" />
<rect x="5" y="4" width="1" height="1" fill="#FEFEFF" shape-rendering="crispEdges" />
<rect x="6" y="4" width="1" height="1" fill="#FDFDFF" shape-rendering="crispEdges" />
<rect x="7" y="4" width="1" height="1" fill="#FEFEFF" shape-rendering="crispEdges" />
<rect x="8" y="4" width="1" height="1" fill="#FDFDFF" shape-rendering="crispEdges" />
<rect x="9" y="4" width="1" height="1" fill="#FEFEFF" shape-rendering="crispEdges" />
<rect x="10" y="4" width="1" height="1" fill="#FEFEFF" shape-rendering="crispEdges" />
<rect x="5" y="5" width="1" height="1" fill="#FDFDFF" shape-rendering="crispEdges" />
<rect x="9" y="5" width="1" height="1" fill="#FDFDFF" shape-rendering="crispEdges" />
<rect x="5" y="6" width="1" height="1" fill="#FEFEFF" shape-rendering="crispEdges" />
<rect x="6" y="6" width="1" height="1" fill="#FDFDFF" shape-rendering="crispEdges" />
<rect x="7" y="6" width="1" height="1" fill="#41F672" shape-rendering="crispEdges" />
<rect x="8" y="6" width="1" height="1" fill="#FDFDFF" shape-rendering="crispEdges" />
<rect x="9" y="6" width="1" height="1" fill="#41F672" shape-rendering="crispEdges" />
<rect x="12" y="6" width="1" height="1" fill="#FEFEFF" shape-rendering="crispEdges" />
<rect x="2" y="7" width="1" height="1" fill="#FEFEFF" shape-rendering="crispEdges" />
<rect x="5" y="7" width="1" height="1" fill="#FDFDFF" shape-rendering="crispEdges" />
<rect x="2" y="8" width="1" height="1" fill="#FEFEFF" shape-rendering="crispEdges" />
<rect x="4" y="8" width="1" height="1" fill="#FEFEFF" shape-rendering="crispEdges" />
<rect x="5" y="8" width="1" height="1" fill="#FEFEFF" shape-rendering="crispEdges" />
<rect x="7" y="8" width="1" height="1" fill="#A8DFB1" shape-rendering="crispEdges" />
<rect x="8" y="8" width="1" height="1" fill="#A8DFB1" shape-rendering="crispEdges" />
<rect x="9" y="8" width="1" height="1" fill="#FEFEFF" shape-rendering="crispEdges" />
<rect x="4" y="9" width="1" height="1" fill="#41F672" shape-rendering="crispEdges" />
<rect x="5" y="9" width="1" height="1" fill="#FDFDFF" shape-rendering="crispEdges" />
<rect x="7" y="9" width="1" height="1" fill="#FDFDFF" shape-rendering="crispEdges" />
<rect x="8" y="9" width="1" height="1" fill="#BCCED2" shape-rendering="crispEdges" />
<rect x="9" y="9" width="1" height="1" fill="#FDFDFF" shape-rendering="crispEdges" />
<rect x="10" y="9" width="1" height="1" fill="#FEFEFF" shape-rendering="crispEdges" />
<rect x="4" y="10" width="1" height="1" fill="#FEFEFF" shape-rendering="crispEdges" />
<rect x="5" y="10" width="1" height="1" fill="#41F672" shape-rendering="crispEdges" />
<rect x="7" y="10" width="1" height="1" fill="#D7B8E5" shape-rendering="crispEdges" />
<rect x="8" y="10" width="1" height="1" fill="#D6B8E5" shape-rendering="crispEdges" />
<rect x="9" y="10" width="1" height="1" fill="#FEFEFF" shape-rendering="crispEdges" />
<rect x="4" y="11" width="1" height="1" fill="#FEFEFF" shape-rendering="crispEdges" />
<rect x="5" y="11" width="1" height="1" fill="#FEFEFF" shape-rendering="crispEdges" />
<rect x="6" y="11" width="1" height="1" fill="#FDFDFF" shape-rendering="crispEdges" />
<rect x="7" y="11" width="1" height="1" fill="#FEFEFF" shape-rendering="crispEdges" />
<rect x="8" y="11" width="1" height="1" fill="#FDFDFF" shape-rendering="crispEdges" />
<rect x="6" y="12" width="1" height="1" fill="#FEFEFF" shape-rendering="crispEdges" />
<rect x="8" y="12" width="1" height="1" fill="#FEFEFF" shape-rendering="crispEdges" />
<rect x="6" y="13" width="1" height="1" fill="#FEFEFF" shape-rendering="crispEdges" />
<rect x="3" y="15" width="1" height="1" fill="#FEFEFF" shape-rendering="crispEdges" />
<rect x="4" y="15" width="1" height="1" fill="#FEFEFF" shape-rendering="crispEdges" />
<rect x="5" y="15" width="1" height="1" fill="#FEFEFF" shape-rendering="crispEdges" />
<rect x="6" y="15" width="1" height="1" fill="#FEFEFF" shape-rendering="crispEdges" />
<rect x="9" y="15" width="1" height="1" fill="#FEFEFF" shape-rendering="crispEdges" />
</svg>