<svg viewBox="0 0 16 16" xmlns="http://www.w3.org/2000/svg">
<rect x="6" y="4" width="1" height="1" fill="#C46866" shape-rendering="crispEdges" />
<rect x="7" y="4" width="1" height="1" fill="#B7B7B7" shape-rendering="crispEdges" />
<rect x="8" y="4" width="1" height="1" fill="#B7B6B6" shape-rendering="crispEdges" />
<rect x="13" y="4" width="1" height="1" fill="#CF5D4F" shape-rendering="crispEdges" />
<rect x="14" y="4" width="1" height="1" fill="#9B6ACA" shape-rendering="crispEdges" />
<rect x="5" y="5" width="1" height="1" fill="#C56866" shape-rendering="crispEdges" />
<rect x="6" y="5" width="1" height="1" fill="#B7B7B7" shape-rendering="crispEdges" />
<rect x="7" y="5" width="1" height="1" fill="#B7B7B7" shape-rendering="crispEdges" />
<rect x="8" y="5" width="1" height="1" fill="#B7B7B7" shape-rendering="crispEdges" />
<rect x="9" y="5" width="1" height="1" fill="#B6B7B7" shape-rendering="crispEdges" />
<rect x="12" y="5" width="1" height="1" fill="#CF5D4F" shape-rendering="crispEdges" />
<rect x="13" y="5" width="1" height="1" fill="#9B6ACA" shape-rendering="crispEdges" />
<rect x="14" y="5" width="1" height="1" fill="#44C27F" shape-rendering="crispEdges" />
<rect x="6" y="6" width="1" height="1" fill="#B7B7B7" shape-rendering="crispEdges" />
<rect x="7" y="6" width="1" height="1" fill="#B079C6" shape-rendering="crispEdges" />
<rect x="8" y="6" width="1" height="1" fill="#B7B7B7" shape-rendering="crispEdges" />
<rect x="9" y="6" width="1" height="1" fill="#B079C6" shape-rendering="crispEdges" />
<rect x="10" y="6" width="1" height="1" fill="#B7B7B7" shape-rendering="crispEdges" />
<rect x="12" y="6" width="1" height="1" fill="#9B6ACA" shape-rendering="crispEdges" />
<rect x="13" y="6" width="1" height="1" fill="#44C27F" shape-rendering="crispEdges" />
<rect x="5" y="7" width="1" height="1" fill="#C56866" shape-rendering="crispEdges" />
<rect x="6" y="7" width="1" height="1" fill="#6AB387" shape-rendering="crispEdges" />
<rect x="7" y="7" width="1" height="1" fill="#B5B7B7" shape-rendering="crispEdges" />
<rect x="8" y="7" width="1" height="1" fill="#6AB387" shape-rendering="crispEdges" />
<rect x="9" y="7" width="1" height="1" fill="#B5B7B7" shape-rendering="crispEdges" />
<rect x="10" y="7" width="1" height="1" fill="#6CB286" shape-rendering="crispEdges" />
<rect x="11" y="7" width="1" height="1" fill="#B6B7B6" shape-rendering="crispEdges" />
<rect x="6" y="8" width="1" height="1" fill="#6AB387" shape-rendering="crispEdges" />
<rect x="7" y="8" width="1" height="1" fill="#B67ACE" shape-rendering="crispEdges" />
<rect x="8" y="8" width="1" height="1" fill="#B67ACE" shape-rendering="crispEdges" />
<rect x="10" y="8" width="1" height="1" fill="#B48366" shape-rendering="crispEdges" />
<rect x="4" y="9" width="1" height="1" fill="#6BB388" shape-rendering="crispEdges" />
<rect x="5" y="9" width="1" height="1" fill="#C56866" shape-rendering="crispEdges" />
<rect x="6" y="9" width="1" height="1" fill="#6AB387" shape-rendering="crispEdges" />
<rect x="7" y="9" width="1" height="1" fill="#6AB387" shape-rendering="crispEdges" />
<rect x="8" y="9" width="1" height="1" fill="#B67ACE" shape-rendering="crispEdges" />
<rect x="9" y="9" width="1" height="1" fill="#6CB286" shape-rendering="crispEdges" />
<rect x="5" y="10" width="1" height="1" fill="#6BB388" shape-rendering="crispEdges" />
<rect x="6" y="10" width="1" height="1" fill="#6AB387" shape-rendering="crispEdges" />
<rect x="7" y="10" width="1" height="1" fill="#B67ACE" shape-rendering="crispEdges" />
<rect x="8" y="10" width="1" height="1" fill="#B67ACE" shape-rendering="crispEdges" />
<rect x="6" y="11" width="1" height="1" fill="#6CB286" shape-rendering="crispEdges" />
<rect x="8" y="11" width="1" height="1" fill="#6CB286" shape-rendering="crispEdges" />
</svg>