<svg viewBox="0 0 16 16" xmlns="http://www.w3.org/2000/svg">
<rect x="6" y="4" width="1" height="1" fill="#CCAE52" shape-rendering="crispEdges" />
<rect x="8" y="4" width="1" height="1" fill="#CCAE52" shape-rendering="crispEdges" />
<rect x="5" y="5" width="1" height="1" fill="#CCAE52" shape-rendering="crispEdges" />
<rect x="6" y="5" width="1" height="1" fill="#9957C9" shape-rendering="crispEdges" />
<rect x="7" y="5" width="1" height="1" fill="#9957C9" shape-rendering="crispEdges" />
<rect x="8" y="5" width="1" height="1" fill="#9957C9" shape-rendering="crispEdges" />
<rect x="9" y="5" width="1" height="1" fill="#9A58CA" shape-rendering="crispEdges" />
<rect x="5" y="6" width="1" height="1" fill="#9A58CA" shape-rendering="crispEdges" />
<rect x="6" y="6" width="1" height="1" fill="#DADADA" shape-rendering="crispEdges" />
<rect x="10" y="6" width="1" height="1" fill="#DADADA" shape-rendering="crispEdges" />
<rect x="4" y="7" width="1" height="1" fill="#9A58CA" shape-rendering="crispEdges" />
<rect x="5" y="7" width="1" height="1" fill="#CCAE52" shape-rendering="crispEdges" />
<rect x="6" y="7" width="1" height="1" fill="#C3C3C3" shape-rendering="crispEdges" />
<rect x="7" y="7" width="1" height="1" fill="#C3C3C3" shape-rendering="crispEdges" />
<rect x="8" y="7" width="1" height="1" fill="#C3C3C3" shape-rendering="crispEdges" />
<rect x="9" y="7" width="1" height="1" fill="#C3C3C3" shape-rendering="crispEdges" />
<rect x="10" y="7" width="1" height="1" fill="#C2C2C2" shape-rendering="crispEdges" />
<rect x="6" y="8" width="1" height="1" fill="#B1B1B1" shape-rendering="crispEdges" />
<rect x="7" y="8" width="1" height="1" fill="#DCDCDC" shape-rendering="crispEdges" />
<rect x="8" y="8" width="1" height="1" fill="#DCDCDC" shape-rendering="crispEdges" />
<rect x="4" y="9" width="1" height="1" fill="#9B9B9B" shape-rendering="crispEdges" />
<rect x="5" y="9" width="1" height="1" fill="#CCAE52" shape-rendering="crispEdges" />
<rect x="6" y="9" width="1" height="1" fill="#9B9B9B" shape-rendering="crispEdges" />
<rect x="7" y="9" width="1" height="1" fill="#9B9B9B" shape-rendering="crispEdges" />
<rect x="8" y="9" width="1" height="1" fill="#DBDBDB" shape-rendering="crispEdges" />
<rect x="9" y="9" width="1" height="1" fill="#9A9B9B" shape-rendering="crispEdges" />
<rect x="5" y="10" width="1" height="1" fill="#838383" shape-rendering="crispEdges" />
<rect x="6" y="10" width="1" height="1" fill="#828282" shape-rendering="crispEdges" />
<rect x="7" y="10" width="1" height="1" fill="#DBDBDB" shape-rendering="crispEdges" />
<rect x="8" y="10" width="1" height="1" fill="#DBDBDB" shape-rendering="crispEdges" />
<rect x="6" y="11" width="1" height="1" fill="#6D6D6D" shape-rendering="crispEdges" />
<rect x="8" y="11" width="1" height="1" fill="#6D6D6D" shape-rendering="crispEdges" />
</svg>