<svg viewBox="0 0 16 16" xmlns="http://www.w3.org/2000/svg">
<rect x="7" y="3" width="1" height="1" fill="#338FC6" shape-rendering="crispEdges" />
<rect x="8" y="3" width="1" height="1" fill="#328EC5" shape-rendering="crispEdges" />
<rect x="9" y="3" width="1" height="1" fill="#338FC6" shape-rendering="crispEdges" />
<rect x="5" y="4" width="1" height="1" fill="#338FC6" shape-rendering="crispEdges" />
<rect x="6" y="4" width="1" height="1" fill="#318DC5" shape-rendering="crispEdges" />
<rect x="7" y="4" width="1" height="1" fill="#328EC5" shape-rendering="crispEdges" />
<rect x="8" y="4" width="1" height="1" fill="#328EC5" shape-rendering="crispEdges" />
<rect x="9" y="4" width="1" height="1" fill="#328EC5" shape-rendering="crispEdges" />
<rect x="13" y="4" width="1" height="1" fill="#CF5D4F" shape-rendering="crispEdges" />
<rect x="14" y="4" width="1" height="1" fill="#9B6ACA" shape-rendering="crispEdges" />
<rect x="5" y="5" width="1" height="1" fill="#414040" shape-rendering="crispEdges" />
<rect x="6" y="5" width="1" height="1" fill="#896F96" shape-rendering="crispEdges" />
<rect x="7" y="5" width="1" height="1" fill="#896F96" shape-rendering="crispEdges" />
<rect x="8" y="5" width="1" height="1" fill="#896F96" shape-rendering="crispEdges" />
<rect x="9" y="5" width="1" height="1" fill="#8A7096" shape-rendering="crispEdges" />
<rect x="12" y="5" width="1" height="1" fill="#CF5D4F" shape-rendering="crispEdges" />
<rect x="13" y="5" width="1" height="1" fill="#9B6ACA" shape-rendering="crispEdges" />
<rect x="14" y="5" width="1" height="1" fill="#44C27F" shape-rendering="crispEdges" />
<rect x="6" y="6" width="1" height="1" fill="#896F96" shape-rendering="crispEdges" />
<rect x="7" y="6" width="1" height="1" fill="#D48049" shape-rendering="crispEdges" />
<rect x="8" y="6" width="1" height="1" fill="#896F96" shape-rendering="crispEdges" />
<rect x="9" y="6" width="1" height="1" fill="#D48049" shape-rendering="crispEdges" />
<rect x="10" y="6" width="1" height="1" fill="#8A7095" shape-rendering="crispEdges" />
<rect x="12" y="6" width="1" height="1" fill="#9B6ACA" shape-rendering="crispEdges" />
<rect x="13" y="6" width="1" height="1" fill="#44C27F" shape-rendering="crispEdges" />
<rect x="5" y="7" width="1" height="1" fill="#414040" shape-rendering="crispEdges" />
<rect x="6" y="7" width="1" height="1" fill="#896F96" shape-rendering="crispEdges" />
<rect x="7" y="7" width="1" height="1" fill="#896F96" shape-rendering="crispEdges" />
<rect x="8" y="7" width="1" height="1" fill="#896F96" shape-rendering="crispEdges" />
<rect x="9" y="7" width="1" height="1" fill="#896F96" shape-rendering="crispEdges" />
<rect x="10" y="7" width="1" height="1" fill="#8A7095" shape-rendering="crispEdges" />
<rect x="11" y="7" width="1" height="1" fill="#B48366" shape-rendering="crispEdges" />
<rect x="6" y="8" width="1" height="1" fill="#896F96" shape-rendering="crispEdges" />
<rect x="7" y="8" width="1" height="1" fill="#D8D474" shape-rendering="crispEdges" />
<rect x="8" y="8" width="1" height="1" fill="#D8D474" shape-rendering="crispEdges" />
<rect x="10" y="8" width="1" height="1" fill="#B48366" shape-rendering="crispEdges" />
<rect x="0" y="9" width="1" height="1" fill="#DDDDDD" shape-rendering="crispEdges" />
<rect x="4" y="9" width="1" height="1" fill="#8A7195" shape-rendering="crispEdges" />
<rect x="5" y="9" width="1" height="1" fill="#414040" shape-rendering="crispEdges" />
<rect x="6" y="9" width="1" height="1" fill="#896F96" shape-rendering="crispEdges" />
<rect x="7" y="9" width="1" height="1" fill="#8A7097" shape-rendering="crispEdges" />
<rect x="8" y="9" width="1" height="1" fill="#D8D474" shape-rendering="crispEdges" />
<rect x="9" y="9" width="1" height="1" fill="#8A7095" shape-rendering="crispEdges" />
<rect x="0" y="10" width="1" height="1" fill="#DDDDDD" shape-rendering="crispEdges" />
<rect x="1" y="10" width="1" height="1" fill="#DDDDDD" shape-rendering="crispEdges" />
<rect x="5" y="10" width="1" height="1" fill="#8A7195" shape-rendering="crispEdges" />
<rect x="6" y="10" width="1" height="1" fill="#896F96" shape-rendering="crispEdges" />
<rect x="7" y="10" width="1" height="1" fill="#D8D474" shape-rendering="crispEdges" />
<rect x="8" y="10" width="1" height="1" fill="#D8D474" shape-rendering="crispEdges" />
<rect x="0" y="11" width="1" height="1" fill="#DDDDDD" shape-rendering="crispEdges" />
<rect x="2" y="11" width="1" height="1" fill="#DDDDDD" shape-rendering="crispEdges" />
<rect x="6" y="11" width="1" height="1" fill="#8A7095" shape-rendering="crispEdges" />
<rect x="8" y="11" width="1" height="1" fill="#8A7095" shape-rendering="crispEdges" />
<rect x="0" y="12" width="1" height="1" fill="#DDDDDD" shape-rendering="crispEdges" />
<rect x="1" y="12" width="1" height="1" fill="#DDDDDD" shape-rendering="crispEdges" />
<rect x="2" y="12" width="1" height="1" fill="#DDDDDD" shape-rendering="crispEdges" />
<rect x="3" y="12" width="1" height="1" fill="#DDDDDD" shape-rendering="crispEdges" />
<rect x="1" y="13" width="1" height="1" fill="#DDDDDD" shape-rendering="crispEdges" />
<rect x="3" y="13" width="1" height="1" fill="#DDDDDD" shape-rendering="crispEdges" />
<rect x="5" y="13" width="1" height="1" fill="#C566BF" shape-rendering="crispEdges" />
<rect x="6" y="13" width="1" height="1" fill="#C566BF" shape-rendering="crispEdges" />
<rect x="7" y="13" width="1" height="1" fill="#C566BF" shape-rendering="crispEdges" />
<rect x="8" y="13" width="1" height="1" fill="#C567C0" shape-rendering="crispEdges" />
</svg>