<svg viewBox="0 0 16 16" xmlns="http://www.w3.org/2000/svg">
<rect x="6" y="2" width="1" height="1" fill="#EAEAEA" shape-rendering="crispEdges" />
<rect x="7" y="2" width="1" height="1" fill="#EAEAEA" shape-rendering="crispEdges" />
<rect x="8" y="2" width="1" height="1" fill="#E9E9E9" shape-rendering="crispEdges" />
<rect x="6" y="3" width="1" height="1" fill="#EAEAEA" shape-rendering="crispEdges" />
<rect x="7" y="3" width="1" height="1" fill="#EAEAEA" shape-rendering="crispEdges" />
<rect x="8" y="3" width="1" height="1" fill="#E9E9E9" shape-rendering="crispEdges" />
<rect x="6" y="4" width="1" height="1" fill="#EAEAEA" shape-rendering="crispEdges" />
<rect x="7" y="4" width="1" height="1" fill="#EAEAEA" shape-rendering="crispEdges" />
<rect x="8" y="4" width="1" height="1" fill="#E9E9E9" shape-rendering="crispEdges" />
<rect x="5" y="5" width="1" height="1" fill="#5EAEB1" shape-rendering="crispEdges" />
<rect x="6" y="5" width="1" height="1" fill="#C7DCA4" shape-rendering="crispEdges" />
<rect x="7" y="5" width="1" height="1" fill="#C7DCA4" shape-rendering="crispEdges" />
<rect x="8" y="5" width="1" height="1" fill="#C7DCA4" shape-rendering="crispEdges" />
<rect x="9" y="5" width="1" height="1" fill="#C7DBA3" shape-rendering="crispEdges" />
<rect x="6" y="6" width="1" height="1" fill="#C7DCA4" shape-rendering="crispEdges" />
<rect x="7" y="6" width="1" height="1" fill="#F4F4F4" shape-rendering="crispEdges" />
<rect x="8" y="6" width="1" height="1" fill="#C7DCA4" shape-rendering="crispEdges" />
<rect x="9" y="6" width="1" height="1" fill="#F4F4F4" shape-rendering="crispEdges" />
<rect x="10" y="6" width="1" height="1" fill="#C7DBA3" shape-rendering="crispEdges" />
<rect x="5" y="7" width="1" height="1" fill="#5EAEB1" shape-rendering="crispEdges" />
<rect x="6" y="7" width="1" height="1" fill="#C7DCA4" shape-rendering="crispEdges" />
<rect x="7" y="7" width="1" height="1" fill="#C7DCA4" shape-rendering="crispEdges" />
<rect x="8" y="7" width="1" height="1" fill="#C7DCA4" shape-rendering="crispEdges" />
<rect x="9" y="7" width="1" height="1" fill="#C7DCA4" shape-rendering="crispEdges" />
<rect x="10" y="7" width="1" height="1" fill="#C7DBA3" shape-rendering="crispEdges" />
<rect x="6" y="8" width="1" height="1" fill="#C7DCA4" shape-rendering="crispEdges" />
<rect x="7" y="8" width="1" height="1" fill="#8AD1DD" shape-rendering="crispEdges" />
<rect x="8" y="8" width="1" height="1" fill="#8AD1DD" shape-rendering="crispEdges" />
<rect x="4" y="9" width="1" height="1" fill="#C7DAA3" shape-rendering="crispEdges" />
<rect x="5" y="9" width="1" height="1" fill="#5EAEB1" shape-rendering="crispEdges" />
<rect x="6" y="9" width="1" height="1" fill="#C7DCA4" shape-rendering="crispEdges" />
<rect x="7" y="9" width="1" height="1" fill="#C7DCA4" shape-rendering="crispEdges" />
<rect x="8" y="9" width="1" height="1" fill="#8AD1DD" shape-rendering="crispEdges" />
<rect x="9" y="9" width="1" height="1" fill="#DCDCDC" shape-rendering="crispEdges" />
<rect x="5" y="10" width="1" height="1" fill="#C7DAA3" shape-rendering="crispEdges" />
<rect x="6" y="10" width="1" height="1" fill="#C7DCA4" shape-rendering="crispEdges" />
<rect x="7" y="10" width="1" height="1" fill="#8AD1DD" shape-rendering="crispEdges" />
<rect x="8" y="10" width="1" height="1" fill="#8AD1DD" shape-rendering="crispEdges" />
<rect x="6" y="11" width="1" height="1" fill="#C7DBA3" shape-rendering="crispEdges" />
<rect x="8" y="11" width="1" height="1" fill="#C7DBA3" shape-rendering="crispEdges" />
</svg>