<svg viewBox="0 0 16 16" xmlns="http://www.w3.org/2000/svg">
<rect x="7" y="3" width="1" height="1" fill="#DBDBDB" shape-rendering="crispEdges" />
<rect x="8" y="3" width="1" height="1" fill="#DBDBDB" shape-rendering="crispEdges" />
<rect x="9" y="3" width="1" height="1" fill="#DADADB" shape-rendering="crispEdges" />
<rect x="5" y="4" width="1" height="1" fill="#C24536" shape-rendering="crispEdges" />
<rect x="6" y="4" width="1" height="1" fill="#C24536" shape-rendering="crispEdges" />
<rect x="7" y="4" width="1" height="1" fill="#C24536" shape-rendering="crispEdges" />
<rect x="8" y="4" width="1" height="1" fill="#C24536" shape-rendering="crispEdges" />
<rect x="9" y="4" width="1" height="1" fill="#C24536" shape-rendering="crispEdges" />
<rect x="5" y="5" width="1" height="1" fill="#C16E48" shape-rendering="crispEdges" />
<rect x="6" y="5" width="1" height="1" fill="#3A3A3A" shape-rendering="crispEdges" />
<rect x="7" y="5" width="1" height="1" fill="#3A3A3A" shape-rendering="crispEdges" />
<rect x="8" y="5" width="1" height="1" fill="#3A3A3A" shape-rendering="crispEdges" />
<rect x="9" y="5" width="1" height="1" fill="#3B3B3C" shape-rendering="crispEdges" />
<rect x="6" y="6" width="1" height="1" fill="#3A3A3A" shape-rendering="crispEdges" />
<rect x="7" y="6" width="1" height="1" fill="#E02401" shape-rendering="crispEdges" />
<rect x="8" y="6" width="1" height="1" fill="#3A3A3A" shape-rendering="crispEdges" />
<rect x="9" y="6" width="1" height="1" fill="#E02401" shape-rendering="crispEdges" />
<rect x="10" y="6" width="1" height="1" fill="#3A3A3A" shape-rendering="crispEdges" />
<rect x="11" y="6" width="1" height="1" fill="#E02401" shape-rendering="crispEdges" />
<rect x="12" y="6" width="1" height="1" fill="#E02401" shape-rendering="crispEdges" />
<rect x="13" y="6" width="1" height="1" fill="#E02401" shape-rendering="crispEdges" />
<rect x="14" y="6" width="1" height="1" fill="#E02401" shape-rendering="crispEdges" />
<rect x="15" y="6" width="1" height="1" fill="#E02401" shape-rendering="crispEdges" />
<rect x="5" y="7" width="1" height="1" fill="#C16E48" shape-rendering="crispEdges" />
<rect x="6" y="7" width="1" height="1" fill="#6AB387" shape-rendering="crispEdges" />
<rect x="7" y="7" width="1" height="1" fill="#6AB387" shape-rendering="crispEdges" />
<rect x="8" y="7" width="1" height="1" fill="#6AB387" shape-rendering="crispEdges" />
<rect x="9" y="7" width="1" height="1" fill="#6AB387" shape-rendering="crispEdges" />
<rect x="10" y="7" width="1" height="1" fill="#6CB286" shape-rendering="crispEdges" />
<rect x="6" y="8" width="1" height="1" fill="#6AB387" shape-rendering="crispEdges" />
<rect x="7" y="8" width="1" height="1" fill="#BF5F6A" shape-rendering="crispEdges" />
<rect x="8" y="8" width="1" height="1" fill="#BF5F6A" shape-rendering="crispEdges" />
<rect x="4" y="9" width="1" height="1" fill="#6BB388" shape-rendering="crispEdges" />
<rect x="5" y="9" width="1" height="1" fill="#C16E48" shape-rendering="crispEdges" />
<rect x="6" y="9" width="1" height="1" fill="#6AB387" shape-rendering="crispEdges" />
<rect x="7" y="9" width="1" height="1" fill="#6BB488" shape-rendering="crispEdges" />
<rect x="8" y="9" width="1" height="1" fill="#BF5F6A" shape-rendering="crispEdges" />
<rect x="9" y="9" width="1" height="1" fill="#6CB286" shape-rendering="crispEdges" />
<rect x="5" y="10" width="1" height="1" fill="#6BB388" shape-rendering="crispEdges" />
<rect x="6" y="10" width="1" height="1" fill="#6AB387" shape-rendering="crispEdges" />
<rect x="7" y="10" width="1" height="1" fill="#BF5F6A" shape-rendering="crispEdges" />
<rect x="8" y="10" width="1" height="1" fill="#BF5F6A" shape-rendering="crispEdges" />
<rect x="6" y="11" width="1" height="1" fill="#6CB286" shape-rendering="crispEdges" />
<rect x="8" y="11" width="1" height="1" fill="#6CB286" shape-rendering="crispEdges" />
</svg>