<svg viewBox="0 0 16 16" xmlns="http://www.w3.org/2000/svg">
<rect x="4" y="2" width="1" height="1" fill="#FEFFFF" shape-rendering="crispEdges" />
<rect x="5" y="2" width="1" height="1" fill="#FEFFFF" shape-rendering="crispEdges" />
<rect x="9" y="2" width="1" height="1" fill="#FEFFFF" shape-rendering="crispEdges" />
<rect x="4" y="3" width="1" height="1" fill="#FEDA02" shape-rendering="crispEdges" />
<rect x="5" y="3" width="1" height="1" fill="#FEFFFF" shape-rendering="crispEdges" />
<rect x="4" y="4" width="1" height="1" fill="#FEFFFF" shape-rendering="crispEdges" />
<rect x="5" y="4" width="1" height="1" fill="#FEDA02" shape-rendering="crispEdges" />
<rect x="6" y="4" width="1" height="1" fill="#FEDA02" shape-rendering="crispEdges" />
<rect x="7" y="4" width="1" height="1" fill="#FEDA02" shape-rendering="crispEdges" />
<rect x="8" y="4" width="1" height="1" fill="#FEDA02" shape-rendering="crispEdges" />
<rect x="9" y="4" width="1" height="1" fill="#FEFFFF" shape-rendering="crispEdges" />
<rect x="5" y="5" width="1" height="1" fill="#FFDA00" shape-rendering="crispEdges" />
<rect x="6" y="5" width="1" height="1" fill="#FFDA00" shape-rendering="crispEdges" />
<rect x="7" y="5" width="1" height="1" fill="#FFDA00" shape-rendering="crispEdges" />
<rect x="8" y="5" width="1" height="1" fill="#FFDA00" shape-rendering="crispEdges" />
<rect x="9" y="5" width="1" height="1" fill="#FFDA00" shape-rendering="crispEdges" />
<rect x="10" y="5" width="1" height="1" fill="#FEFFFF" shape-rendering="crispEdges" />
<rect x="5" y="6" width="1" height="1" fill="#FEDA02" shape-rendering="crispEdges" />
<rect x="6" y="6" width="1" height="1" fill="#FFDA00" shape-rendering="crispEdges" />
<rect x="7" y="6" width="1" height="1" fill="#FBF4FF" shape-rendering="crispEdges" />
<rect x="8" y="6" width="1" height="1" fill="#FDD901" shape-rendering="crispEdges" />
<rect x="9" y="6" width="1" height="1" fill="#FBF4FF" shape-rendering="crispEdges" />
<rect x="10" y="6" width="1" height="1" fill="#FDD901" shape-rendering="crispEdges" />
<rect x="11" y="6" width="1" height="1" fill="#FEFFFF" shape-rendering="crispEdges" />
<rect x="3" y="7" width="1" height="1" fill="#FEFFFF" shape-rendering="crispEdges" />
<rect x="5" y="7" width="1" height="1" fill="#FEDA02" shape-rendering="crispEdges" />
<rect x="6" y="7" width="1" height="1" fill="#FFDA00" shape-rendering="crispEdges" />
<rect x="7" y="7" width="1" height="1" fill="#FFDA00" shape-rendering="crispEdges" />
<rect x="8" y="7" width="1" height="1" fill="#FFDA00" shape-rendering="crispEdges" />
<rect x="9" y="7" width="1" height="1" fill="#FFDA00" shape-rendering="crispEdges" />
<rect x="10" y="7" width="1" height="1" fill="#FDD901" shape-rendering="crispEdges" />
<rect x="3" y="8" width="1" height="1" fill="#FEFFFF" shape-rendering="crispEdges" />
<rect x="5" y="8" width="1" height="1" fill="#FEFFFF" shape-rendering="crispEdges" />
<rect x="6" y="8" width="1" height="1" fill="#FFDA00" shape-rendering="crispEdges" />
<rect x="7" y="8" width="1" height="1" fill="#FFDE20" shape-rendering="crispEdges" />
<rect x="8" y="8" width="1" height="1" fill="#FFDE20" shape-rendering="crispEdges" />
<rect x="3" y="9" width="1" height="1" fill="#FEFFFF" shape-rendering="crispEdges" />
<rect x="4" y="9" width="1" height="1" fill="#FDDA01" shape-rendering="crispEdges" />
<rect x="5" y="9" width="1" height="1" fill="#FEFFFF" shape-rendering="crispEdges" />
<rect x="6" y="9" width="1" height="1" fill="#FFDA00" shape-rendering="crispEdges" />
<rect x="7" y="9" width="1" height="1" fill="#FFDA00" shape-rendering="crispEdges" />
<rect x="8" y="9" width="1" height="1" fill="#FFDE20" shape-rendering="crispEdges" />
<rect x="9" y="9" width="1" height="1" fill="#FFDA00" shape-rendering="crispEdges" />
<rect x="10" y="9" width="1" height="1" fill="#FEFFFF" shape-rendering="crispEdges" />
<rect x="11" y="9" width="1" height="1" fill="#FEFFFF" shape-rendering="crispEdges" />
<rect x="4" y="10" width="1" height="1" fill="#FEFFFF" shape-rendering="crispEdges" />
<rect x="5" y="10" width="1" height="1" fill="#FDD901" shape-rendering="crispEdges" />
<rect x="6" y="10" width="1" height="1" fill="#FFDA00" shape-rendering="crispEdges" />
<rect x="7" y="10" width="1" height="1" fill="#FFDE20" shape-rendering="crispEdges" />
<rect x="8" y="10" width="1" height="1" fill="#FFDE20" shape-rendering="crispEdges" />
<rect x="9" y="10" width="1" height="1" fill="#FEFFFF" shape-rendering="crispEdges" />
<rect x="5" y="11" width="1" height="1" fill="#FEFFFF" shape-rendering="crispEdges" />
<rect x="6" y="11" width="1" height="1" fill="#FDD901" shape-rendering="crispEdges" />
<rect x="7" y="11" width="1" height="1" fill="#FEFFFF" shape-rendering="crispEdges" />
<rect x="8" y="11" width="1" height="1" fill="#FDD901" shape-rendering="crispEdges" />
<rect x="6" y="12" width="1" height="1" fill="#FEFFFF" shape-rendering="crispEdges" />
<rect x="8" y="12" width="1" height="1" fill="#FEFFFF" shape-rendering="crispEdges" />
</svg>