<svg viewBox="0 0 16 16" xmlns="http://www.w3.org/2000/svg">
<rect x="7" y="3" width="1" height="1" fill="#338FC6" shape-rendering="crispEdges" />
<rect x="8" y="3" width="1" height="1" fill="#328EC5" shape-rendering="crispEdges" />
<rect x="9" y="3" width="1" height="1" fill="#338FC6" shape-rendering="crispEdges" />
<rect x="5" y="4" width="1" height="1" fill="#338FC6" shape-rendering="crispEdges" />
<rect x="6" y="4" width="1" height="1" fill="#328EC6" shape-rendering="crispEdges" />
<rect x="7" y="4" width="1" height="1" fill="#328EC5" shape-rendering="crispEdges" />
<rect x="8" y="4" width="1" height="1" fill="#328EC5" shape-rendering="crispEdges" />
<rect x="9" y="4" width="1" height="1" fill="#328EC5" shape-rendering="crispEdges" />
<rect x="5" y="5" width="1" height="1" fill="#C466C4" shape-rendering="crispEdges" />
<rect x="6" y="5" width="1" height="1" fill="#DAC678" shape-rendering="crispEdges" />
<rect x="7" y="5" width="1" height="1" fill="#DAC678" shape-rendering="crispEdges" />
<rect x="8" y="5" width="1" height="1" fill="#DAC678" shape-rendering="crispEdges" />
<rect x="9" y="5" width="1" height="1" fill="#D9C57A" shape-rendering="crispEdges" />
<rect x="6" y="6" width="1" height="1" fill="#4A4A4A" shape-rendering="crispEdges" />
<rect x="7" y="6" width="1" height="1" fill="#BD5441" shape-rendering="crispEdges" />
<rect x="8" y="6" width="1" height="1" fill="#4A4A4A" shape-rendering="crispEdges" />
<rect x="9" y="6" width="1" height="1" fill="#BD5441" shape-rendering="crispEdges" />
<rect x="10" y="6" width="1" height="1" fill="#4A4A4A" shape-rendering="crispEdges" />
<rect x="5" y="7" width="1" height="1" fill="#C466C4" shape-rendering="crispEdges" />
<rect x="6" y="7" width="1" height="1" fill="#DAC678" shape-rendering="crispEdges" />
<rect x="7" y="7" width="1" height="1" fill="#DAC678" shape-rendering="crispEdges" />
<rect x="8" y="7" width="1" height="1" fill="#DAC678" shape-rendering="crispEdges" />
<rect x="9" y="7" width="1" height="1" fill="#DAC678" shape-rendering="crispEdges" />
<rect x="10" y="7" width="1" height="1" fill="#DAC679" shape-rendering="crispEdges" />
<rect x="6" y="8" width="1" height="1" fill="#DAC678" shape-rendering="crispEdges" />
<rect x="7" y="8" width="1" height="1" fill="#7B7BCE" shape-rendering="crispEdges" />
<rect x="8" y="8" width="1" height="1" fill="#7B7BCE" shape-rendering="crispEdges" />
<rect x="4" y="9" width="1" height="1" fill="#D8C67A" shape-rendering="crispEdges" />
<rect x="5" y="9" width="1" height="1" fill="#C466C4" shape-rendering="crispEdges" />
<rect x="6" y="9" width="1" height="1" fill="#DAC678" shape-rendering="crispEdges" />
<rect x="7" y="9" width="1" height="1" fill="#DAC679" shape-rendering="crispEdges" />
<rect x="8" y="9" width="1" height="1" fill="#7B7BCE" shape-rendering="crispEdges" />
<rect x="9" y="9" width="1" height="1" fill="#DAC679" shape-rendering="crispEdges" />
<rect x="5" y="10" width="1" height="1" fill="#D8C67A" shape-rendering="crispEdges" />
<rect x="6" y="10" width="1" height="1" fill="#DAC678" shape-rendering="crispEdges" />
<rect x="7" y="10" width="1" height="1" fill="#7B7BCE" shape-rendering="crispEdges" />
<rect x="8" y="10" width="1" height="1" fill="#7B7BCE" shape-rendering="crispEdges" />
<rect x="6" y="11" width="1" height="1" fill="#DAC679" shape-rendering="crispEdges" />
<rect x="8" y="11" width="1" height="1" fill="#DAC679" shape-rendering="crispEdges" />
</svg>