<svg viewBox="0 0 16 16" xmlns="http://www.w3.org/2000/svg">
<rect x="6" y="3" width="1" height="1" fill="#9457CB" shape-rendering="crispEdges" />
<rect x="7" y="3" width="1" height="1" fill="#9457CB" shape-rendering="crispEdges" />
<rect x="8" y="3" width="1" height="1" fill="#9457CB" shape-rendering="crispEdges" />
<rect x="6" y="4" width="1" height="1" fill="#9256CA" shape-rendering="crispEdges" />
<rect x="7" y="4" width="1" height="1" fill="#9557CA" shape-rendering="crispEdges" />
<rect x="8" y="4" width="1" height="1" fill="#9557CA" shape-rendering="crispEdges" />
<rect x="9" y="4" width="1" height="1" fill="#9557CA" shape-rendering="crispEdges" />
<rect x="10" y="4" width="1" height="1" fill="#9457CA" shape-rendering="crispEdges" />
<rect x="13" y="4" width="1" height="1" fill="#CF5D4F" shape-rendering="crispEdges" />
<rect x="14" y="4" width="1" height="1" fill="#9B6ACA" shape-rendering="crispEdges" />
<rect x="5" y="5" width="1" height="1" fill="#414040" shape-rendering="crispEdges" />
<rect x="6" y="5" width="1" height="1" fill="#DAC678" shape-rendering="crispEdges" />
<rect x="7" y="5" width="1" height="1" fill="#DAC678" shape-rendering="crispEdges" />
<rect x="8" y="5" width="1" height="1" fill="#DAC678" shape-rendering="crispEdges" />
<rect x="9" y="5" width="1" height="1" fill="#D9C57A" shape-rendering="crispEdges" />
<rect x="12" y="5" width="1" height="1" fill="#CF5D4F" shape-rendering="crispEdges" />
<rect x="13" y="5" width="1" height="1" fill="#9B6ACA" shape-rendering="crispEdges" />
<rect x="14" y="5" width="1" height="1" fill="#44C27F" shape-rendering="crispEdges" />
<rect x="6" y="6" width="1" height="1" fill="#DAC678" shape-rendering="crispEdges" />
<rect x="7" y="6" width="1" height="1" fill="#929291" shape-rendering="crispEdges" />
<rect x="8" y="6" width="1" height="1" fill="#DAC678" shape-rendering="crispEdges" />
<rect x="9" y="6" width="1" height="1" fill="#929291" shape-rendering="crispEdges" />
<rect x="10" y="6" width="1" height="1" fill="#DAC679" shape-rendering="crispEdges" />
<rect x="12" y="6" width="1" height="1" fill="#9B6ACA" shape-rendering="crispEdges" />
<rect x="13" y="6" width="1" height="1" fill="#44C27F" shape-rendering="crispEdges" />
<rect x="5" y="7" width="1" height="1" fill="#414040" shape-rendering="crispEdges" />
<rect x="6" y="7" width="1" height="1" fill="#DAC678" shape-rendering="crispEdges" />
<rect x="7" y="7" width="1" height="1" fill="#DAC678" shape-rendering="crispEdges" />
<rect x="8" y="7" width="1" height="1" fill="#DAC678" shape-rendering="crispEdges" />
<rect x="9" y="7" width="1" height="1" fill="#DAC678" shape-rendering="crispEdges" />
<rect x="10" y="7" width="1" height="1" fill="#DAC679" shape-rendering="crispEdges" />
<rect x="11" y="7" width="1" height="1" fill="#B48366" shape-rendering="crispEdges" />
<rect x="6" y="8" width="1" height="1" fill="#DAC678" shape-rendering="crispEdges" />
<rect x="7" y="8" width="1" height="1" fill="#35B9D1" shape-rendering="crispEdges" />
<rect x="8" y="8" width="1" height="1" fill="#35B9D1" shape-rendering="crispEdges" />
<rect x="10" y="8" width="1" height="1" fill="#B48366" shape-rendering="crispEdges" />
<rect x="4" y="9" width="1" height="1" fill="#D8C67A" shape-rendering="crispEdges" />
<rect x="5" y="9" width="1" height="1" fill="#414040" shape-rendering="crispEdges" />
<rect x="6" y="9" width="1" height="1" fill="#DAC678" shape-rendering="crispEdges" />
<rect x="7" y="9" width="1" height="1" fill="#DAC679" shape-rendering="crispEdges" />
<rect x="8" y="9" width="1" height="1" fill="#35B9D1" shape-rendering="crispEdges" />
<rect x="9" y="9" width="1" height="1" fill="#DAC679" shape-rendering="crispEdges" />
<rect x="5" y="10" width="1" height="1" fill="#D8C67A" shape-rendering="crispEdges" />
<rect x="6" y="10" width="1" height="1" fill="#DAC678" shape-rendering="crispEdges" />
<rect x="7" y="10" width="1" height="1" fill="#35B9D1" shape-rendering="crispEdges" />
<rect x="8" y="10" width="1" height="1" fill="#35B9D1" shape-rendering="crispEdges" />
<rect x="6" y="11" width="1" height="1" fill="#DAC679" shape-rendering="crispEdges" />
<rect x="8" y="11" width="1" height="1" fill="#DAC679" shape-rendering="crispEdges" />
</svg>