<svg viewBox="0 0 16 16" xmlns="http://www.w3.org/2000/svg">
<rect x="6" y="4" width="1" height="1" fill="#414040" shape-rendering="crispEdges" />
<rect x="8" y="4" width="1" height="1" fill="#414040" shape-rendering="crispEdges" />
<rect x="5" y="5" width="1" height="1" fill="#414040" shape-rendering="crispEdges" />
<rect x="6" y="5" width="1" height="1" fill="#C4CADF" shape-rendering="crispEdges" />
<rect x="7" y="5" width="1" height="1" fill="#C4CADF" shape-rendering="crispEdges" />
<rect x="8" y="5" width="1" height="1" fill="#C4CADF" shape-rendering="crispEdges" />
<rect x="9" y="5" width="1" height="1" fill="#C4CADF" shape-rendering="crispEdges" />
<rect x="6" y="6" width="1" height="1" fill="#AAB8E3" shape-rendering="crispEdges" />
<rect x="7" y="6" width="1" height="1" fill="#5E89C4" shape-rendering="crispEdges" />
<rect x="8" y="6" width="1" height="1" fill="#AAB8E3" shape-rendering="crispEdges" />
<rect x="9" y="6" width="1" height="1" fill="#5E89C4" shape-rendering="crispEdges" />
<rect x="10" y="6" width="1" height="1" fill="#ABB8E3" shape-rendering="crispEdges" />
<rect x="5" y="7" width="1" height="1" fill="#414040" shape-rendering="crispEdges" />
<rect x="6" y="7" width="1" height="1" fill="#95A8E4" shape-rendering="crispEdges" />
<rect x="7" y="7" width="1" height="1" fill="#95A8E4" shape-rendering="crispEdges" />
<rect x="8" y="7" width="1" height="1" fill="#95A8E4" shape-rendering="crispEdges" />
<rect x="9" y="7" width="1" height="1" fill="#95A8E4" shape-rendering="crispEdges" />
<rect x="10" y="7" width="1" height="1" fill="#95A8E4" shape-rendering="crispEdges" />
<rect x="6" y="8" width="1" height="1" fill="#8199E4" shape-rendering="crispEdges" />
<rect x="7" y="8" width="1" height="1" fill="#7A7ACF" shape-rendering="crispEdges" />
<rect x="8" y="8" width="1" height="1" fill="#7A7ACF" shape-rendering="crispEdges" />
<rect x="4" y="9" width="1" height="1" fill="#728DE6" shape-rendering="crispEdges" />
<rect x="5" y="9" width="1" height="1" fill="#414040" shape-rendering="crispEdges" />
<rect x="6" y="9" width="1" height="1" fill="#728DE6" shape-rendering="crispEdges" />
<rect x="7" y="9" width="1" height="1" fill="#718EE6" shape-rendering="crispEdges" />
<rect x="8" y="9" width="1" height="1" fill="#7A7ACF" shape-rendering="crispEdges" />
<rect x="9" y="9" width="1" height="1" fill="#728DE6" shape-rendering="crispEdges" />
<rect x="5" y="10" width="1" height="1" fill="#5E7EE2" shape-rendering="crispEdges" />
<rect x="6" y="10" width="1" height="1" fill="#5E7EE2" shape-rendering="crispEdges" />
<rect x="7" y="10" width="1" height="1" fill="#7A7ACF" shape-rendering="crispEdges" />
<rect x="8" y="10" width="1" height="1" fill="#7A7ACF" shape-rendering="crispEdges" />
<rect x="6" y="11" width="1" height="1" fill="#5275E2" shape-rendering="crispEdges" />
<rect x="8" y="11" width="1" height="1" fill="#5275E2" shape-rendering="crispEdges" />
</svg>