<svg viewBox="0 0 16 16" xmlns="http://www.w3.org/2000/svg">
<rect x="7" y="3" width="1" height="1" fill="#E6B32E" shape-rendering="crispEdges" />
<rect x="8" y="3" width="1" height="1" fill="#E6B32F" shape-rendering="crispEdges" />
<rect x="6" y="4" width="1" height="1" fill="#E6B32E" shape-rendering="crispEdges" />
<rect x="7" y="4" width="1" height="1" fill="#E6B32E" shape-rendering="crispEdges" />
<rect x="8" y="4" width="1" height="1" fill="#E6B32E" shape-rendering="crispEdges" />
<rect x="9" y="4" width="1" height="1" fill="#E6B32F" shape-rendering="crispEdges" />
<rect x="5" y="5" width="1" height="1" fill="#414040" shape-rendering="crispEdges" />
<rect x="6" y="5" width="1" height="1" fill="#8BA4D5" shape-rendering="crispEdges" />
<rect x="7" y="5" width="1" height="1" fill="#8BA4D5" shape-rendering="crispEdges" />
<rect x="8" y="5" width="1" height="1" fill="#8BA4D5" shape-rendering="crispEdges" />
<rect x="9" y="5" width="1" height="1" fill="#8DA3D2" shape-rendering="crispEdges" />
<rect x="6" y="6" width="1" height="1" fill="#8BA4D5" shape-rendering="crispEdges" />
<rect x="7" y="6" width="1" height="1" fill="#7A1401" shape-rendering="crispEdges" />
<rect x="8" y="6" width="1" height="1" fill="#8BA4D5" shape-rendering="crispEdges" />
<rect x="9" y="6" width="1" height="1" fill="#7A1401" shape-rendering="crispEdges" />
<rect x="10" y="6" width="1" height="1" fill="#8DA3D2" shape-rendering="crispEdges" />
<rect x="5" y="7" width="1" height="1" fill="#414040" shape-rendering="crispEdges" />
<rect x="6" y="7" width="1" height="1" fill="#8BA4D5" shape-rendering="crispEdges" />
<rect x="7" y="7" width="1" height="1" fill="#8BA4D5" shape-rendering="crispEdges" />
<rect x="8" y="7" width="1" height="1" fill="#8BA4D5" shape-rendering="crispEdges" />
<rect x="9" y="7" width="1" height="1" fill="#8BA4D5" shape-rendering="crispEdges" />
<rect x="10" y="7" width="1" height="1" fill="#8DA3D2" shape-rendering="crispEdges" />
<rect x="6" y="8" width="1" height="1" fill="#8BA4D5" shape-rendering="crispEdges" />
<rect x="7" y="8" width="1" height="1" fill="#DBDCDC" shape-rendering="crispEdges" />
<rect x="8" y="8" width="1" height="1" fill="#DBDCDC" shape-rendering="crispEdges" />
<rect x="4" y="9" width="1" height="1" fill="#8CA5D5" shape-rendering="crispEdges" />
<rect x="5" y="9" width="1" height="1" fill="#414040" shape-rendering="crispEdges" />
<rect x="6" y="9" width="1" height="1" fill="#8BA4D5" shape-rendering="crispEdges" />
<rect x="7" y="9" width="1" height="1" fill="#8BA4D5" shape-rendering="crispEdges" />
<rect x="8" y="9" width="1" height="1" fill="#DBDCDC" shape-rendering="crispEdges" />
<rect x="9" y="9" width="1" height="1" fill="#DBDCDC" shape-rendering="crispEdges" />
<rect x="5" y="10" width="1" height="1" fill="#8CA5D5" shape-rendering="crispEdges" />
<rect x="6" y="10" width="1" height="1" fill="#8BA4D5" shape-rendering="crispEdges" />
<rect x="7" y="10" width="1" height="1" fill="#DBDCDC" shape-rendering="crispEdges" />
<rect x="8" y="10" width="1" height="1" fill="#DBDCDC" shape-rendering="crispEdges" />
<rect x="6" y="11" width="1" height="1" fill="#8DA3D2" shape-rendering="crispEdges" />
<rect x="8" y="11" width="1" height="1" fill="#8DA3D2" shape-rendering="crispEdges" />
</svg>