<svg viewBox="0 0 16 16" xmlns="http://www.w3.org/2000/svg">
<rect x="9" y="0" width="1" height="1" fill="#FEFEFF" shape-rendering="crispEdges" />
<rect x="14" y="0" width="1" height="1" fill="#FEFEFF" shape-rendering="crispEdges" />
<rect x="7" y="3" width="1" height="1" fill="#FEFEFF" shape-rendering="crispEdges" />
<rect x="6" y="5" width="1" height="1" fill="#108B12" shape-rendering="crispEdges" />
<rect x="7" y="5" width="1" height="1" fill="#108B12" shape-rendering="crispEdges" />
<rect x="8" y="5" width="1" height="1" fill="#108B12" shape-rendering="crispEdges" />
<rect x="9" y="5" width="1" height="1" fill="#108B12" shape-rendering="crispEdges" />
<rect x="10" y="5" width="1" height="1" fill="#FEFEFF" shape-rendering="crispEdges" />
<rect x="6" y="6" width="1" height="1" fill="#108B12" shape-rendering="crispEdges" />
<rect x="7" y="6" width="1" height="1" fill="#FEFEFF" shape-rendering="crispEdges" />
<rect x="8" y="6" width="1" height="1" fill="#108B12" shape-rendering="crispEdges" />
<rect x="9" y="6" width="1" height="1" fill="#DEEBF8" shape-rendering="crispEdges" />
<rect x="10" y="6" width="1" height="1" fill="#108B12" shape-rendering="crispEdges" />
<rect x="6" y="7" width="1" height="1" fill="#108B12" shape-rendering="crispEdges" />
<rect x="7" y="7" width="1" height="1" fill="#108B12" shape-rendering="crispEdges" />
<rect x="8" y="7" width="1" height="1" fill="#108B12" shape-rendering="crispEdges" />
<rect x="9" y="7" width="1" height="1" fill="#108B12" shape-rendering="crispEdges" />
<rect x="10" y="7" width="1" height="1" fill="#108B12" shape-rendering="crispEdges" />
<rect x="4" y="8" width="1" height="1" fill="#FFFEFE" shape-rendering="crispEdges" />
<rect x="6" y="8" width="1" height="1" fill="#108B12" shape-rendering="crispEdges" />
<rect x="7" y="8" width="1" height="1" fill="#88BB75" shape-rendering="crispEdges" />
<rect x="8" y="8" width="1" height="1" fill="#88BB75" shape-rendering="crispEdges" />
<rect x="9" y="8" width="1" height="1" fill="#FFFEFE" shape-rendering="crispEdges" />
<rect x="4" y="9" width="1" height="1" fill="#108B12" shape-rendering="crispEdges" />
<rect x="5" y="9" width="1" height="1" fill="#FFFEFE" shape-rendering="crispEdges" />
<rect x="6" y="9" width="1" height="1" fill="#108B12" shape-rendering="crispEdges" />
<rect x="7" y="9" width="1" height="1" fill="#108B12" shape-rendering="crispEdges" />
<rect x="8" y="9" width="1" height="1" fill="#88BB75" shape-rendering="crispEdges" />
<rect x="9" y="9" width="1" height="1" fill="#108B12" shape-rendering="crispEdges" />
<rect x="4" y="10" width="1" height="1" fill="#FFFEFE" shape-rendering="crispEdges" />
<rect x="5" y="10" width="1" height="1" fill="#108B12" shape-rendering="crispEdges" />
<rect x="6" y="10" width="1" height="1" fill="#108B12" shape-rendering="crispEdges" />
<rect x="7" y="10" width="1" height="1" fill="#86BA74" shape-rendering="crispEdges" />
<rect x="8" y="10" width="1" height="1" fill="#86BA74" shape-rendering="crispEdges" />
<rect x="6" y="11" width="1" height="1" fill="#108B12" shape-rendering="crispEdges" />
<rect x="8" y="11" width="1" height="1" fill="#108B12" shape-rendering="crispEdges" />
<rect x="8" y="12" width="1" height="1" fill="#FFFEFE" shape-rendering="crispEdges" />
<rect x="9" y="13" width="1" height="1" fill="#FFFEFE" shape-rendering="crispEdges" />
<rect x="0" y="15" width="1" height="1" fill="#FFFEFE" shape-rendering="crispEdges" />
<rect x="10" y="15" width="1" height="1" fill="#FFFEFE" shape-rendering="crispEdges" />
<rect x="11" y="15" width="1" height="1" fill="#FFFEFE" shape-rendering="crispEdges" />
</svg>