<svg viewBox="0 0 16 16" xmlns="http://www.w3.org/2000/svg">
<rect x="6" y="4" width="1" height="1" fill="#7651AA" shape-rendering="crispEdges" />
<rect x="8" y="4" width="1" height="1" fill="#7651AA" shape-rendering="crispEdges" />
<rect x="5" y="5" width="1" height="1" fill="#7651AA" shape-rendering="crispEdges" />
<rect x="6" y="5" width="1" height="1" fill="#C1D9CB" shape-rendering="crispEdges" />
<rect x="7" y="5" width="1" height="1" fill="#C1D9CB" shape-rendering="crispEdges" />
<rect x="8" y="5" width="1" height="1" fill="#C1D9CB" shape-rendering="crispEdges" />
<rect x="9" y="5" width="1" height="1" fill="#C1D9CB" shape-rendering="crispEdges" />
<rect x="6" y="6" width="1" height="1" fill="#ACD4BD" shape-rendering="crispEdges" />
<rect x="7" y="6" width="1" height="1" fill="#5E89C4" shape-rendering="crispEdges" />
<rect x="8" y="6" width="1" height="1" fill="#ACD4BD" shape-rendering="crispEdges" />
<rect x="9" y="6" width="1" height="1" fill="#5E89C4" shape-rendering="crispEdges" />
<rect x="10" y="6" width="1" height="1" fill="#ACD4BD" shape-rendering="crispEdges" />
<rect x="5" y="7" width="1" height="1" fill="#7651AA" shape-rendering="crispEdges" />
<rect x="6" y="7" width="1" height="1" fill="#8ED0A9" shape-rendering="crispEdges" />
<rect x="7" y="7" width="1" height="1" fill="#8ED0A9" shape-rendering="crispEdges" />
<rect x="8" y="7" width="1" height="1" fill="#8ED0A9" shape-rendering="crispEdges" />
<rect x="9" y="7" width="1" height="1" fill="#8ED0A9" shape-rendering="crispEdges" />
<rect x="10" y="7" width="1" height="1" fill="#8ED0A9" shape-rendering="crispEdges" />
<rect x="6" y="8" width="1" height="1" fill="#6ACE94" shape-rendering="crispEdges" />
<rect x="7" y="8" width="1" height="1" fill="#8AD1DC" shape-rendering="crispEdges" />
<rect x="8" y="8" width="1" height="1" fill="#8AD1DC" shape-rendering="crispEdges" />
<rect x="4" y="9" width="1" height="1" fill="#47D481" shape-rendering="crispEdges" />
<rect x="5" y="9" width="1" height="1" fill="#7651AA" shape-rendering="crispEdges" />
<rect x="6" y="9" width="1" height="1" fill="#58D18A" shape-rendering="crispEdges" />
<rect x="7" y="9" width="1" height="1" fill="#58D18A" shape-rendering="crispEdges" />
<rect x="8" y="9" width="1" height="1" fill="#8AD1DC" shape-rendering="crispEdges" />
<rect x="9" y="9" width="1" height="1" fill="#58D18A" shape-rendering="crispEdges" />
<rect x="5" y="10" width="1" height="1" fill="#47D481" shape-rendering="crispEdges" />
<rect x="6" y="10" width="1" height="1" fill="#47D481" shape-rendering="crispEdges" />
<rect x="7" y="10" width="1" height="1" fill="#89D1DC" shape-rendering="crispEdges" />
<rect x="8" y="10" width="1" height="1" fill="#89D1DC" shape-rendering="crispEdges" />
<rect x="4" y="11" width="1" height="1" fill="#7C4D3B" shape-rendering="crispEdges" />
<rect x="6" y="11" width="1" height="1" fill="#30D273" shape-rendering="crispEdges" />
<rect x="8" y="11" width="1" height="1" fill="#30D273" shape-rendering="crispEdges" />
<rect x="10" y="11" width="1" height="1" fill="#7C4D3B" shape-rendering="crispEdges" />
<rect x="5" y="12" width="1" height="1" fill="#7B4C3A" shape-rendering="crispEdges" />
<rect x="6" y="12" width="1" height="1" fill="#7A4A38" shape-rendering="crispEdges" />
<rect x="7" y="12" width="1" height="1" fill="#7A4A38" shape-rendering="crispEdges" />
<rect x="8" y="12" width="1" height="1" fill="#7B4C3A" shape-rendering="crispEdges" />
<rect x="9" y="12" width="1" height="1" fill="#7B4C3A" shape-rendering="crispEdges" />
<rect x="5" y="13" width="1" height="1" fill="#FEFEFE" shape-rendering="crispEdges" />
<rect x="6" y="13" width="1" height="1" fill="#BAB1AD" shape-rendering="crispEdges" />
<rect x="8" y="13" width="1" height="1" fill="#BAB1AD" shape-rendering="crispEdges" />
<rect x="9" y="13" width="1" height="1" fill="#FEFEFE" shape-rendering="crispEdges" />
</svg>