<svg viewBox="0 0 16 16" xmlns="http://www.w3.org/2000/svg">
<rect x="5" y="4" width="1" height="1" fill="#9F9F9F" shape-rendering="crispEdges" />
<rect x="6" y="4" width="1" height="1" fill="#9F9E9F" shape-rendering="crispEdges" />
<rect x="8" y="4" width="1" height="1" fill="#9F9F9F" shape-rendering="crispEdges" />
<rect x="9" y="4" width="1" height="1" fill="#A0A0A0" shape-rendering="crispEdges" />
<rect x="5" y="5" width="1" height="1" fill="#9F9F9F" shape-rendering="crispEdges" />
<rect x="6" y="5" width="1" height="1" fill="#86CD76" shape-rendering="crispEdges" />
<rect x="7" y="5" width="1" height="1" fill="#86CD76" shape-rendering="crispEdges" />
<rect x="8" y="5" width="1" height="1" fill="#86CD76" shape-rendering="crispEdges" />
<rect x="9" y="5" width="1" height="1" fill="#86CD77" shape-rendering="crispEdges" />
<rect x="6" y="6" width="1" height="1" fill="#86CD76" shape-rendering="crispEdges" />
<rect x="7" y="6" width="1" height="1" fill="#BD5441" shape-rendering="crispEdges" />
<rect x="8" y="6" width="1" height="1" fill="#86CD76" shape-rendering="crispEdges" />
<rect x="9" y="6" width="1" height="1" fill="#BD5441" shape-rendering="crispEdges" />
<rect x="10" y="6" width="1" height="1" fill="#86CD77" shape-rendering="crispEdges" />
<rect x="5" y="7" width="1" height="1" fill="#7651AA" shape-rendering="crispEdges" />
<rect x="6" y="7" width="1" height="1" fill="#86CD76" shape-rendering="crispEdges" />
<rect x="7" y="7" width="1" height="1" fill="#86CD76" shape-rendering="crispEdges" />
<rect x="8" y="7" width="1" height="1" fill="#86CD76" shape-rendering="crispEdges" />
<rect x="9" y="7" width="1" height="1" fill="#86CD76" shape-rendering="crispEdges" />
<rect x="10" y="7" width="1" height="1" fill="#86CD77" shape-rendering="crispEdges" />
<rect x="6" y="8" width="1" height="1" fill="#86CD76" shape-rendering="crispEdges" />
<rect x="7" y="8" width="1" height="1" fill="#7A7BCE" shape-rendering="crispEdges" />
<rect x="8" y="8" width="1" height="1" fill="#7A7BCE" shape-rendering="crispEdges" />
<rect x="4" y="9" width="1" height="1" fill="#87CD77" shape-rendering="crispEdges" />
<rect x="5" y="9" width="1" height="1" fill="#7651AA" shape-rendering="crispEdges" />
<rect x="6" y="9" width="1" height="1" fill="#86CD76" shape-rendering="crispEdges" />
<rect x="7" y="9" width="1" height="1" fill="#DBDCDB" shape-rendering="crispEdges" />
<rect x="8" y="9" width="1" height="1" fill="#7A7BCE" shape-rendering="crispEdges" />
<rect x="9" y="9" width="1" height="1" fill="#86CD77" shape-rendering="crispEdges" />
<rect x="5" y="10" width="1" height="1" fill="#87CD77" shape-rendering="crispEdges" />
<rect x="6" y="10" width="1" height="1" fill="#86CD76" shape-rendering="crispEdges" />
<rect x="7" y="10" width="1" height="1" fill="#7A7BCE" shape-rendering="crispEdges" />
<rect x="8" y="10" width="1" height="1" fill="#7A7BCE" shape-rendering="crispEdges" />
<rect x="6" y="11" width="1" height="1" fill="#86CD77" shape-rendering="crispEdges" />
<rect x="8" y="11" width="1" height="1" fill="#86CD77" shape-rendering="crispEdges" />
</svg>