<svg viewBox="0 0 16 16" xmlns="http://www.w3.org/2000/svg">
<rect x="6" y="4" width="1" height="1" fill="#5EAEB1" shape-rendering="crispEdges" />
<rect x="8" y="4" width="1" height="1" fill="#5EAEB1" shape-rendering="crispEdges" />
<rect x="5" y="5" width="1" height="1" fill="#5EAEB1" shape-rendering="crispEdges" />
<rect x="6" y="5" width="1" height="1" fill="#E1D8D1" shape-rendering="crispEdges" />
<rect x="7" y="5" width="1" height="1" fill="#E1D8D1" shape-rendering="crispEdges" />
<rect x="8" y="5" width="1" height="1" fill="#E1D8D1" shape-rendering="crispEdges" />
<rect x="9" y="5" width="1" height="1" fill="#E1D8D1" shape-rendering="crispEdges" />
<rect x="6" y="6" width="1" height="1" fill="#DFC2AE" shape-rendering="crispEdges" />
<rect x="7" y="6" width="1" height="1" fill="#F4F4F4" shape-rendering="crispEdges" />
<rect x="8" y="6" width="1" height="1" fill="#DFC2AE" shape-rendering="crispEdges" />
<rect x="9" y="6" width="1" height="1" fill="#F4F4F4" shape-rendering="crispEdges" />
<rect x="10" y="6" width="1" height="1" fill="#DFC2AE" shape-rendering="crispEdges" />
<rect x="5" y="7" width="1" height="1" fill="#5EAEB1" shape-rendering="crispEdges" />
<rect x="6" y="7" width="1" height="1" fill="#E1B08E" shape-rendering="crispEdges" />
<rect x="7" y="7" width="1" height="1" fill="#E1B08E" shape-rendering="crispEdges" />
<rect x="8" y="7" width="1" height="1" fill="#E1B08E" shape-rendering="crispEdges" />
<rect x="9" y="7" width="1" height="1" fill="#E1B08E" shape-rendering="crispEdges" />
<rect x="10" y="7" width="1" height="1" fill="#E1B08E" shape-rendering="crispEdges" />
<rect x="6" y="8" width="1" height="1" fill="#E5A57A" shape-rendering="crispEdges" />
<rect x="7" y="8" width="1" height="1" fill="#7BBD76" shape-rendering="crispEdges" />
<rect x="8" y="8" width="1" height="1" fill="#7BBD76" shape-rendering="crispEdges" />
<rect x="4" y="9" width="1" height="1" fill="#E4955F" shape-rendering="crispEdges" />
<rect x="5" y="9" width="1" height="1" fill="#5EAEB1" shape-rendering="crispEdges" />
<rect x="6" y="9" width="1" height="1" fill="#E5955E" shape-rendering="crispEdges" />
<rect x="7" y="9" width="1" height="1" fill="#E5955E" shape-rendering="crispEdges" />
<rect x="8" y="9" width="1" height="1" fill="#7BBD76" shape-rendering="crispEdges" />
<rect x="9" y="9" width="1" height="1" fill="#DCDBDB" shape-rendering="crispEdges" />
<rect x="5" y="10" width="1" height="1" fill="#E48442" shape-rendering="crispEdges" />
<rect x="6" y="10" width="1" height="1" fill="#E48442" shape-rendering="crispEdges" />
<rect x="7" y="10" width="1" height="1" fill="#7BBD76" shape-rendering="crispEdges" />
<rect x="8" y="10" width="1" height="1" fill="#7BBD76" shape-rendering="crispEdges" />
<rect x="6" y="11" width="1" height="1" fill="#E37931" shape-rendering="crispEdges" />
<rect x="8" y="11" width="1" height="1" fill="#E37931" shape-rendering="crispEdges" />
</svg>