<svg viewBox="0 0 16 16" xmlns="http://www.w3.org/2000/svg">
<rect x="5" y="4" width="1" height="1" fill="#9F9F9F" shape-rendering="crispEdges" />
<rect x="6" y="4" width="1" height="1" fill="#9F9F9E" shape-rendering="crispEdges" />
<rect x="7" y="4" width="1" height="1" fill="#B7B7B7" shape-rendering="crispEdges" />
<rect x="8" y="4" width="1" height="1" fill="#9F9F9F" shape-rendering="crispEdges" />
<rect x="9" y="4" width="1" height="1" fill="#A0A0A0" shape-rendering="crispEdges" />
<rect x="5" y="5" width="1" height="1" fill="#9F9F9F" shape-rendering="crispEdges" />
<rect x="6" y="5" width="1" height="1" fill="#B7B7B7" shape-rendering="crispEdges" />
<rect x="7" y="5" width="1" height="1" fill="#B7B7B7" shape-rendering="crispEdges" />
<rect x="8" y="5" width="1" height="1" fill="#B7B7B7" shape-rendering="crispEdges" />
<rect x="9" y="5" width="1" height="1" fill="#B6B7B7" shape-rendering="crispEdges" />
<rect x="6" y="6" width="1" height="1" fill="#B7B7B7" shape-rendering="crispEdges" />
<rect x="7" y="6" width="1" height="1" fill="#7A1401" shape-rendering="crispEdges" />
<rect x="8" y="6" width="1" height="1" fill="#B7B7B7" shape-rendering="crispEdges" />
<rect x="9" y="6" width="1" height="1" fill="#7A1401" shape-rendering="crispEdges" />
<rect x="10" y="6" width="1" height="1" fill="#B7B7B7" shape-rendering="crispEdges" />
<rect x="5" y="7" width="1" height="1" fill="#D68F38" shape-rendering="crispEdges" />
<rect x="6" y="7" width="1" height="1" fill="#4893C5" shape-rendering="crispEdges" />
<rect x="7" y="7" width="1" height="1" fill="#B5B7B7" shape-rendering="crispEdges" />
<rect x="8" y="7" width="1" height="1" fill="#4893C5" shape-rendering="crispEdges" />
<rect x="9" y="7" width="1" height="1" fill="#B5B7B7" shape-rendering="crispEdges" />
<rect x="10" y="7" width="1" height="1" fill="#4993C4" shape-rendering="crispEdges" />
<rect x="11" y="7" width="1" height="1" fill="#B7B8B8" shape-rendering="crispEdges" />
<rect x="6" y="8" width="1" height="1" fill="#4893C5" shape-rendering="crispEdges" />
<rect x="7" y="8" width="1" height="1" fill="#BF5E6B" shape-rendering="crispEdges" />
<rect x="8" y="8" width="1" height="1" fill="#BF5E6B" shape-rendering="crispEdges" />
<rect x="4" y="9" width="1" height="1" fill="#4994C5" shape-rendering="crispEdges" />
<rect x="5" y="9" width="1" height="1" fill="#D68F38" shape-rendering="crispEdges" />
<rect x="6" y="9" width="1" height="1" fill="#4893C5" shape-rendering="crispEdges" />
<rect x="7" y="9" width="1" height="1" fill="#4893C5" shape-rendering="crispEdges" />
<rect x="8" y="9" width="1" height="1" fill="#BF5E6B" shape-rendering="crispEdges" />
<rect x="9" y="9" width="1" height="1" fill="#4993C4" shape-rendering="crispEdges" />
<rect x="5" y="10" width="1" height="1" fill="#4994C5" shape-rendering="crispEdges" />
<rect x="6" y="10" width="1" height="1" fill="#4893C5" shape-rendering="crispEdges" />
<rect x="7" y="10" width="1" height="1" fill="#BF5E6B" shape-rendering="crispEdges" />
<rect x="8" y="10" width="1" height="1" fill="#BF5E6B" shape-rendering="crispEdges" />
<rect x="4" y="11" width="1" height="1" fill="#7C4D3B" shape-rendering="crispEdges" />
<rect x="6" y="11" width="1" height="1" fill="#4993C4" shape-rendering="crispEdges" />
<rect x="8" y="11" width="1" height="1" fill="#4993C4" shape-rendering="crispEdges" />
<rect x="10" y="11" width="1" height="1" fill="#7C4D3B" shape-rendering="crispEdges" />
<rect x="5" y="12" width="1" height="1" fill="#7B4C3A" shape-rendering="crispEdges" />
<rect x="6" y="12" width="1" height="1" fill="#7A4A38" shape-rendering="crispEdges" />
<rect x="7" y="12" width="1" height="1" fill="#7A4A38" shape-rendering="crispEdges" />
<rect x="8" y="12" width="1" height="1" fill="#7B4C3A" shape-rendering="crispEdges" />
<rect x="9" y="12" width="1" height="1" fill="#7B4C3A" shape-rendering="crispEdges" />
<rect x="5" y="13" width="1" height="1" fill="#FEFEFE" shape-rendering="crispEdges" />
<rect x="6" y="13" width="1" height="1" fill="#BAB1AD" shape-rendering="crispEdges" />
<rect x="8" y="13" width="1" height="1" fill="#BAB1AD" shape-rendering="crispEdges" />
<rect x="9" y="13" width="1" height="1" fill="#FEFEFE" shape-rendering="crispEdges" />
</svg>