<svg viewBox="0 0 16 16" xmlns="http://www.w3.org/2000/svg">
<rect x="6" y="4" width="1" height="1" fill="#6BB373" shape-rendering="crispEdges" />
<rect x="7" y="4" width="1" height="1" fill="#B7B7B7" shape-rendering="crispEdges" />
<rect x="8" y="4" width="1" height="1" fill="#B6B7B6" shape-rendering="crispEdges" />
<rect x="5" y="5" width="1" height="1" fill="#6BB373" shape-rendering="crispEdges" />
<rect x="6" y="5" width="1" height="1" fill="#9957C9" shape-rendering="crispEdges" />
<rect x="7" y="5" width="1" height="1" fill="#9957C9" shape-rendering="crispEdges" />
<rect x="8" y="5" width="1" height="1" fill="#9957C9" shape-rendering="crispEdges" />
<rect x="9" y="5" width="1" height="1" fill="#9958CA" shape-rendering="crispEdges" />
<rect x="5" y="6" width="1" height="1" fill="#9A58CA" shape-rendering="crispEdges" />
<rect x="6" y="6" width="1" height="1" fill="#B7B7B7" shape-rendering="crispEdges" />
<rect x="7" y="6" width="1" height="1" fill="#D48049" shape-rendering="crispEdges" />
<rect x="8" y="6" width="1" height="1" fill="#B7B7B7" shape-rendering="crispEdges" />
<rect x="9" y="6" width="1" height="1" fill="#D48049" shape-rendering="crispEdges" />
<rect x="10" y="6" width="1" height="1" fill="#B7B7B7" shape-rendering="crispEdges" />
<rect x="4" y="7" width="1" height="1" fill="#9A58CA" shape-rendering="crispEdges" />
<rect x="5" y="7" width="1" height="1" fill="#6BB373" shape-rendering="crispEdges" />
<rect x="6" y="7" width="1" height="1" fill="#896F96" shape-rendering="crispEdges" />
<rect x="7" y="7" width="1" height="1" fill="#B6B6B7" shape-rendering="crispEdges" />
<rect x="8" y="7" width="1" height="1" fill="#896F96" shape-rendering="crispEdges" />
<rect x="9" y="7" width="1" height="1" fill="#B6B6B7" shape-rendering="crispEdges" />
<rect x="10" y="7" width="1" height="1" fill="#8A7095" shape-rendering="crispEdges" />
<rect x="11" y="7" width="1" height="1" fill="#B7B8B8" shape-rendering="crispEdges" />
<rect x="6" y="8" width="1" height="1" fill="#896F96" shape-rendering="crispEdges" />
<rect x="7" y="8" width="1" height="1" fill="#7A7ACF" shape-rendering="crispEdges" />
<rect x="8" y="8" width="1" height="1" fill="#7A7ACF" shape-rendering="crispEdges" />
<rect x="4" y="9" width="1" height="1" fill="#8A7195" shape-rendering="crispEdges" />
<rect x="5" y="9" width="1" height="1" fill="#6BB373" shape-rendering="crispEdges" />
<rect x="6" y="9" width="1" height="1" fill="#896F96" shape-rendering="crispEdges" />
<rect x="7" y="9" width="1" height="1" fill="#896F96" shape-rendering="crispEdges" />
<rect x="8" y="9" width="1" height="1" fill="#7A7ACF" shape-rendering="crispEdges" />
<rect x="9" y="9" width="1" height="1" fill="#8A7095" shape-rendering="crispEdges" />
<rect x="5" y="10" width="1" height="1" fill="#8A7195" shape-rendering="crispEdges" />
<rect x="6" y="10" width="1" height="1" fill="#896F96" shape-rendering="crispEdges" />
<rect x="7" y="10" width="1" height="1" fill="#7A7ACF" shape-rendering="crispEdges" />
<rect x="8" y="10" width="1" height="1" fill="#7A7ACF" shape-rendering="crispEdges" />
<rect x="6" y="11" width="1" height="1" fill="#8A7095" shape-rendering="crispEdges" />
<rect x="8" y="11" width="1" height="1" fill="#8A7095" shape-rendering="crispEdges" />
</svg>