<svg viewBox="0 0 16 16" xmlns="http://www.w3.org/2000/svg">
<rect x="7" y="3" width="1" height="1" fill="#DBDBDB" shape-rendering="crispEdges" />
<rect x="8" y="3" width="1" height="1" fill="#DBDBDB" shape-rendering="crispEdges" />
<rect x="9" y="3" width="1" height="1" fill="#DADADB" shape-rendering="crispEdges" />
<rect x="5" y="4" width="1" height="1" fill="#C24536" shape-rendering="crispEdges" />
<rect x="6" y="4" width="1" height="1" fill="#C24536" shape-rendering="crispEdges" />
<rect x="7" y="4" width="1" height="1" fill="#C24536" shape-rendering="crispEdges" />
<rect x="8" y="4" width="1" height="1" fill="#C24536" shape-rendering="crispEdges" />
<rect x="9" y="4" width="1" height="1" fill="#C24536" shape-rendering="crispEdges" />
<rect x="13" y="4" width="1" height="1" fill="#CF5D4F" shape-rendering="crispEdges" />
<rect x="14" y="4" width="1" height="1" fill="#9B6ACA" shape-rendering="crispEdges" />
<rect x="5" y="5" width="1" height="1" fill="#B3B3B3" shape-rendering="crispEdges" />
<rect x="6" y="5" width="1" height="1" fill="#C1D9CB" shape-rendering="crispEdges" />
<rect x="7" y="5" width="1" height="1" fill="#C1D9CB" shape-rendering="crispEdges" />
<rect x="8" y="5" width="1" height="1" fill="#C1D9CB" shape-rendering="crispEdges" />
<rect x="9" y="5" width="1" height="1" fill="#C0D8CB" shape-rendering="crispEdges" />
<rect x="12" y="5" width="1" height="1" fill="#CF5D4F" shape-rendering="crispEdges" />
<rect x="13" y="5" width="1" height="1" fill="#9B6ACA" shape-rendering="crispEdges" />
<rect x="14" y="5" width="1" height="1" fill="#44C27F" shape-rendering="crispEdges" />
<rect x="6" y="6" width="1" height="1" fill="#ACD4BD" shape-rendering="crispEdges" />
<rect x="7" y="6" width="1" height="1" fill="#484EC4" shape-rendering="crispEdges" />
<rect x="8" y="6" width="1" height="1" fill="#ACD4BD" shape-rendering="crispEdges" />
<rect x="9" y="6" width="1" height="1" fill="#C6A42D" shape-rendering="crispEdges" />
<rect x="10" y="6" width="1" height="1" fill="#ACD4BD" shape-rendering="crispEdges" />
<rect x="12" y="6" width="1" height="1" fill="#9B6ACA" shape-rendering="crispEdges" />
<rect x="13" y="6" width="1" height="1" fill="#44C27F" shape-rendering="crispEdges" />
<rect x="5" y="7" width="1" height="1" fill="#B3B3B3" shape-rendering="crispEdges" />
<rect x="6" y="7" width="1" height="1" fill="#8ED0A9" shape-rendering="crispEdges" />
<rect x="7" y="7" width="1" height="1" fill="#8ED0A9" shape-rendering="crispEdges" />
<rect x="8" y="7" width="1" height="1" fill="#8ED0A9" shape-rendering="crispEdges" />
<rect x="9" y="7" width="1" height="1" fill="#8ED0A9" shape-rendering="crispEdges" />
<rect x="10" y="7" width="1" height="1" fill="#8ED0A9" shape-rendering="crispEdges" />
<rect x="11" y="7" width="1" height="1" fill="#B48366" shape-rendering="crispEdges" />
<rect x="6" y="8" width="1" height="1" fill="#6ACE94" shape-rendering="crispEdges" />
<rect x="7" y="8" width="1" height="1" fill="#B67BCF" shape-rendering="crispEdges" />
<rect x="8" y="8" width="1" height="1" fill="#B67BCF" shape-rendering="crispEdges" />
<rect x="10" y="8" width="1" height="1" fill="#B48366" shape-rendering="crispEdges" />
<rect x="4" y="9" width="1" height="1" fill="#47D481" shape-rendering="crispEdges" />
<rect x="5" y="9" width="1" height="1" fill="#B3B3B3" shape-rendering="crispEdges" />
<rect x="6" y="9" width="1" height="1" fill="#58D18A" shape-rendering="crispEdges" />
<rect x="7" y="9" width="1" height="1" fill="#59D18B" shape-rendering="crispEdges" />
<rect x="8" y="9" width="1" height="1" fill="#B67BCE" shape-rendering="crispEdges" />
<rect x="9" y="9" width="1" height="1" fill="#58D18A" shape-rendering="crispEdges" />
<rect x="5" y="10" width="1" height="1" fill="#47D481" shape-rendering="crispEdges" />
<rect x="6" y="10" width="1" height="1" fill="#47D481" shape-rendering="crispEdges" />
<rect x="7" y="10" width="1" height="1" fill="#B67BCE" shape-rendering="crispEdges" />
<rect x="8" y="10" width="1" height="1" fill="#B67BCE" shape-rendering="crispEdges" />
<rect x="6" y="11" width="1" height="1" fill="#30D273" shape-rendering="crispEdges" />
<rect x="8" y="11" width="1" height="1" fill="#30D273" shape-rendering="crispEdges" />
</svg>