<svg viewBox="0 0 16 16" xmlns="http://www.w3.org/2000/svg">
<rect x="6" y="4" width="1" height="1" fill="#414141" shape-rendering="crispEdges" />
<rect x="7" y="4" width="1" height="1" fill="#B7B7B7" shape-rendering="crispEdges" />
<rect x="8" y="4" width="1" height="1" fill="#B6B6B6" shape-rendering="crispEdges" />
<rect x="5" y="5" width="1" height="1" fill="#414040" shape-rendering="crispEdges" />
<rect x="6" y="5" width="1" height="1" fill="#9957C9" shape-rendering="crispEdges" />
<rect x="7" y="5" width="1" height="1" fill="#9957C9" shape-rendering="crispEdges" />
<rect x="8" y="5" width="1" height="1" fill="#9957C9" shape-rendering="crispEdges" />
<rect x="9" y="5" width="1" height="1" fill="#9958CA" shape-rendering="crispEdges" />
<rect x="5" y="6" width="1" height="1" fill="#9A58CA" shape-rendering="crispEdges" />
<rect x="6" y="6" width="1" height="1" fill="#B7B7B7" shape-rendering="crispEdges" />
<rect x="7" y="6" width="1" height="1" fill="#929291" shape-rendering="crispEdges" />
<rect x="8" y="6" width="1" height="1" fill="#B7B7B7" shape-rendering="crispEdges" />
<rect x="9" y="6" width="1" height="1" fill="#929291" shape-rendering="crispEdges" />
<rect x="10" y="6" width="1" height="1" fill="#B7B7B7" shape-rendering="crispEdges" />
<rect x="4" y="7" width="1" height="1" fill="#9A58CA" shape-rendering="crispEdges" />
<rect x="5" y="7" width="1" height="1" fill="#414040" shape-rendering="crispEdges" />
<rect x="6" y="7" width="1" height="1" fill="#6ECAD4" shape-rendering="crispEdges" />
<rect x="7" y="7" width="1" height="1" fill="#B5B7B7" shape-rendering="crispEdges" />
<rect x="8" y="7" width="1" height="1" fill="#6EC9D4" shape-rendering="crispEdges" />
<rect x="9" y="7" width="1" height="1" fill="#B5B7B7" shape-rendering="crispEdges" />
<rect x="10" y="7" width="1" height="1" fill="#6ECAD4" shape-rendering="crispEdges" />
<rect x="11" y="7" width="1" height="1" fill="#B7B8B8" shape-rendering="crispEdges" />
<rect x="6" y="8" width="1" height="1" fill="#6ECAD4" shape-rendering="crispEdges" />
<rect x="7" y="8" width="1" height="1" fill="#C88F5A" shape-rendering="crispEdges" />
<rect x="8" y="8" width="1" height="1" fill="#C88F5A" shape-rendering="crispEdges" />
<rect x="0" y="9" width="1" height="1" fill="#DDDDDD" shape-rendering="crispEdges" />
<rect x="4" y="9" width="1" height="1" fill="#6FCAD4" shape-rendering="crispEdges" />
<rect x="5" y="9" width="1" height="1" fill="#414040" shape-rendering="crispEdges" />
<rect x="6" y="9" width="1" height="1" fill="#6EC9D4" shape-rendering="crispEdges" />
<rect x="7" y="9" width="1" height="1" fill="#6EC9D4" shape-rendering="crispEdges" />
<rect x="8" y="9" width="1" height="1" fill="#C88F5A" shape-rendering="crispEdges" />
<rect x="9" y="9" width="1" height="1" fill="#6ECAD4" shape-rendering="crispEdges" />
<rect x="0" y="10" width="1" height="1" fill="#DDDDDD" shape-rendering="crispEdges" />
<rect x="1" y="10" width="1" height="1" fill="#DDDDDD" shape-rendering="crispEdges" />
<rect x="5" y="10" width="1" height="1" fill="#6EC9D4" shape-rendering="crispEdges" />
<rect x="6" y="10" width="1" height="1" fill="#6EC9D4" shape-rendering="crispEdges" />
<rect x="7" y="10" width="1" height="1" fill="#C88F5A" shape-rendering="crispEdges" />
<rect x="8" y="10" width="1" height="1" fill="#C88F5A" shape-rendering="crispEdges" />
<rect x="0" y="11" width="1" height="1" fill="#DDDDDD" shape-rendering="crispEdges" />
<rect x="2" y="11" width="1" height="1" fill="#DDDDDD" shape-rendering="crispEdges" />
<rect x="6" y="11" width="1" height="1" fill="#6ECAD4" shape-rendering="crispEdges" />
<rect x="8" y="11" width="1" height="1" fill="#6ECAD4" shape-rendering="crispEdges" />
<rect x="0" y="12" width="1" height="1" fill="#DDDDDD" shape-rendering="crispEdges" />
<rect x="1" y="12" width="1" height="1" fill="#DDDDDD" shape-rendering="crispEdges" />
<rect x="2" y="12" width="1" height="1" fill="#DDDDDD" shape-rendering="crispEdges" />
<rect x="3" y="12" width="1" height="1" fill="#DDDDDD" shape-rendering="crispEdges" />
<rect x="1" y="13" width="1" height="1" fill="#DDDDDD" shape-rendering="crispEdges" />
<rect x="3" y="13" width="1" height="1" fill="#DDDDDD" shape-rendering="crispEdges" />
<rect x="5" y="13" width="1" height="1" fill="#C566BF" shape-rendering="crispEdges" />
<rect x="6" y="13" width="1" height="1" fill="#C566BF" shape-rendering="crispEdges" />
<rect x="7" y="13" width="1" height="1" fill="#C566BF" shape-rendering="crispEdges" />
<rect x="8" y="13" width="1" height="1" fill="#C567C0" shape-rendering="crispEdges" />
</svg>